# Blender 4.1.1
# www.blender.org
mtllib jett.mtl
o 立方体.001
v 0.893377 -0.119004 -0.987207
v 0.893377 0.119004 -0.987207
v 0.285820 -0.119004 0.441359
v 0.285820 0.119004 0.441359
v -0.893377 -0.119004 -0.987207
v -0.893377 0.119004 -0.987207
v -0.285820 -0.119004 0.441359
v -0.285820 0.119004 0.441359
v -0.000000 -0.308205 0.478780
v -0.060128 -0.302283 0.478780
v -0.117945 -0.284744 0.478780
v -0.171229 -0.256263 0.478780
v -0.217934 -0.217934 0.478781
v -0.256263 -0.171229 0.478781
v -0.284744 -0.117945 0.478781
v -0.302283 -0.060128 0.478781
v -0.308205 0.000000 0.478781
v -0.302283 0.060128 0.478781
v -0.284744 0.117945 0.478781
v -0.256263 0.171229 0.478781
v -0.217934 0.217934 0.478781
v -0.171229 0.256263 0.478781
v -0.117945 0.284744 0.478781
v -0.060128 0.302283 0.478781
v -0.000000 0.308205 0.478781
v 0.060128 0.302283 0.478781
v 0.117945 0.284744 0.478781
v 0.171229 0.256263 0.478781
v 0.217934 0.217934 0.478781
v 0.256263 0.171229 0.478781
v 0.284744 0.117945 0.478781
v 0.302283 0.060128 0.478781
v 0.308205 0.000000 0.478781
v 0.302283 -0.060128 0.478781
v 0.284744 -0.117945 0.478781
v 0.256263 -0.171229 0.478781
v 0.217934 -0.217934 0.478781
v 0.171229 -0.256263 0.478780
v 0.117945 -0.284744 0.478780
v 0.060128 -0.302283 0.478780
v -0.000000 0.000000 1.047497
v 0.000000 -0.323236 -1.054366
v -0.000000 -0.323236 0.479479
v -0.063060 -0.317025 -1.054366
v -0.063060 -0.317025 0.479479
v -0.123697 -0.298631 -1.054366
v -0.123697 -0.298631 0.479479
v -0.179580 -0.268761 -1.054366
v -0.179580 -0.268761 0.479479
v -0.228562 -0.228562 -1.054366
v -0.228562 -0.228562 0.479479
v -0.268761 -0.179580 -1.054366
v -0.268761 -0.179580 0.479479
v -0.298631 -0.123697 -1.054366
v -0.298631 -0.123697 0.479479
v -0.317025 -0.063060 -1.054366
v -0.317025 -0.063060 0.479479
v -0.323236 -0.000000 -1.054366
v -0.323236 0.000000 0.479479
v -0.317025 0.063060 -1.054366
v -0.317025 0.063060 0.479479
v -0.298631 0.123697 -1.054366
v -0.298631 0.123697 0.479479
v -0.268761 0.179580 -1.054366
v -0.268761 0.179580 0.479479
v -0.228562 0.228563 -1.054366
v -0.228562 0.228562 0.479479
v -0.179580 0.268761 -1.054366
v -0.179580 0.268761 0.479479
v -0.123697 0.298631 -1.054366
v -0.123697 0.298631 0.479479
v -0.068715 0.457489 -1.054366
v -0.063060 0.317025 0.479479
v -0.004431 0.533908 -1.054366
v -0.000000 0.323236 0.479479
v 0.063060 0.458612 -1.054366
v 0.063060 0.317025 0.479479
v 0.123697 0.298631 -1.054366
v 0.123697 0.298631 0.479479
v 0.179580 0.268761 -1.054366
v 0.179580 0.268761 0.479479
v 0.228562 0.228563 -1.054366
v 0.228562 0.228562 0.479479
v 0.268761 0.179580 -1.054366
v 0.268761 0.179580 0.479479
v 0.298631 0.123697 -1.054366
v 0.298631 0.123697 0.479479
v 0.317025 0.063060 -1.054366
v 0.317025 0.063060 0.479479
v 0.323236 -0.000000 -1.054366
v 0.323236 0.000000 0.479479
v 0.317025 -0.063060 -1.054366
v 0.317025 -0.063060 0.479479
v 0.298631 -0.123697 -1.054366
v 0.298631 -0.123697 0.479479
v 0.268761 -0.179580 -1.054366
v 0.268761 -0.179580 0.479479
v 0.228562 -0.228562 -1.054366
v 0.228562 -0.228562 0.479479
v 0.179580 -0.268761 -1.054366
v 0.179580 -0.268761 0.479479
v 0.123697 -0.298631 -1.054366
v 0.123697 -0.298631 0.479479
v 0.063060 -0.317025 -1.054366
v 0.063060 -0.317025 0.479479
vn 0.6915 0.5591 -0.4574
vn 0.4407 -0.6015 0.6663
vn 0.6915 -0.5591 -0.4574
vn 0.4407 0.6015 0.6663
vn -0.4407 -0.6015 0.6663
vn -0.4407 0.6015 0.6663
vn -0.6915 -0.5591 -0.4574
vn -0.6915 0.5591 -0.4574
vn -0.0000 -0.8721 -0.4894
vn -0.0000 -0.0000 1.0000
vn -0.1701 -0.8553 -0.4894
vn -0.3337 -0.8057 -0.4894
vn -0.4845 -0.7251 -0.4894
vn -0.6167 -0.6167 -0.4894
vn -0.7251 -0.4845 -0.4894
vn -0.8057 -0.3337 -0.4894
vn -0.8553 -0.1701 -0.4893
vn -0.8721 -0.0000 -0.4894
vn -0.8553 0.1701 -0.4894
vn -0.8057 0.3337 -0.4894
vn -0.7251 0.4845 -0.4894
vn -0.6167 0.6167 -0.4894
vn -0.4845 0.7251 -0.4894
vn -0.3337 0.8057 -0.4893
vn -0.1701 0.8553 -0.4894
vn -0.0000 0.8721 -0.4894
vn 0.1701 0.8553 -0.4894
vn 0.3337 0.8057 -0.4894
vn 0.4845 0.7251 -0.4893
vn 0.6167 0.6167 -0.4894
vn 0.7251 0.4845 -0.4894
vn 0.8057 0.3337 -0.4894
vn 0.8553 0.1701 -0.4893
vn 0.8721 -0.0000 -0.4894
vn 0.8553 -0.1701 -0.4894
vn 0.8057 -0.3337 -0.4894
vn 0.7251 -0.4845 -0.4894
vn 0.6167 -0.6167 -0.4894
vn 0.4845 -0.7251 -0.4894
vn 0.3337 -0.8057 -0.4894
vn 0.1701 -0.8553 -0.4894
vn -0.0000 -0.7279 -0.6857
vn -0.1420 -0.7139 0.6857
vn -0.1420 -0.7139 -0.6857
vn -0.2786 -0.6725 0.6857
vn -0.2786 -0.6725 -0.6857
vn -0.4044 -0.6052 0.6857
vn -0.4044 -0.6052 -0.6857
vn -0.5147 -0.5147 0.6857
vn -0.5147 -0.5147 -0.6857
vn -0.6052 -0.4044 0.6857
vn -0.6052 -0.4044 -0.6857
vn -0.6725 -0.2786 0.6857
vn -0.6725 -0.2785 -0.6857
vn -0.7139 -0.1420 0.6857
vn -0.7139 -0.1420 -0.6857
vn -0.7279 -0.0000 0.6857
vn -0.7279 -0.0000 -0.6857
vn -0.7139 0.1420 0.6857
vn -0.7139 0.1420 -0.6857
vn -0.6725 0.2786 0.6857
vn -0.6725 0.2786 -0.6857
vn -0.6052 0.4044 0.6857
vn -0.6052 0.4044 -0.6857
vn -0.5147 0.5147 0.6857
vn -0.5147 0.5147 -0.6857
vn -0.4044 0.6052 0.6857
vn -0.4044 0.6052 -0.6857
vn -0.2786 0.6725 0.6857
vn -0.4581 0.3995 -0.7941
vn -0.1673 0.6835 0.7105
vn -0.6574 0.3810 -0.6501
vn -0.0065 0.8495 -0.5276
vn 0.0099 0.6871 0.7265
vn 0.6462 0.4090 -0.6443
vn 0.1592 0.6934 0.7027
vn 0.4559 0.4093 -0.7903
vn 0.2786 0.6725 0.6857
vn 0.4044 0.6052 -0.6857
vn 0.4044 0.6052 0.6857
vn 0.5147 0.5147 -0.6857
vn 0.5147 0.5147 0.6857
vn 0.6052 0.4044 -0.6857
vn 0.6052 0.4044 0.6857
vn 0.6725 0.2786 -0.6857
vn 0.6725 0.2786 0.6857
vn 0.7139 0.1420 -0.6857
vn 0.7139 0.1420 0.6857
vn 0.7279 -0.0000 -0.6857
vn 0.7279 -0.0000 0.6857
vn 0.7139 -0.1420 -0.6857
vn 0.7139 -0.1420 0.6857
vn 0.6725 -0.2786 -0.6857
vn 0.6725 -0.2786 0.6857
vn 0.6052 -0.4044 -0.6857
vn 0.6052 -0.4044 0.6857
vn 0.5147 -0.5147 -0.6857
vn 0.5147 -0.5147 0.6857
vn 0.4044 -0.6052 -0.6857
vn 0.4044 -0.6052 0.6857
vn 0.2786 -0.6725 -0.6857
vn 0.2786 -0.6725 0.6857
vn 0.1420 -0.7139 -0.6857
vn 0.1420 -0.7139 0.6857
vn -0.0000 -0.7279 0.6857
vt 0.289256 0.000201
vt 0.144729 0.144729
vt 0.144729 0.000201
vt 0.289256 0.144729
vt 0.144729 0.289256
vt 0.289256 0.289256
vt 0.144729 0.433783
vt 0.289256 0.433783
vt 0.144729 0.578310
vt 0.000201 0.433783
vt 0.000201 0.289256
vt 0.433783 0.289256
vt 0.245531 0.804810
vt 0.138279 0.716791
vt 0.260642 0.782195
vt 0.271051 0.757067
vt 0.276357 0.730390
vt 0.276357 0.703191
vt 0.271051 0.676515
vt 0.260642 0.651386
vt 0.245532 0.628771
vt 0.226299 0.609539
vt 0.203684 0.594428
vt 0.178555 0.584019
vt 0.151879 0.578713
vt 0.124680 0.578713
vt 0.098004 0.584019
vt 0.072875 0.594428
vt 0.050260 0.609539
vt 0.031027 0.628771
vt 0.015916 0.651386
vt 0.005508 0.676515
vt 0.000201 0.703191
vt 0.000201 0.730390
vt 0.005508 0.757067
vt 0.015916 0.782195
vt 0.031027 0.804810
vt 0.050260 0.824043
vt 0.072875 0.839154
vt 0.098003 0.849562
vt 0.124680 0.854869
vt 0.151879 0.854869
vt 0.178555 0.849562
vt 0.203684 0.839154
vt 0.558625 0.676515
vt 0.553319 0.703191
vt 0.603377 0.824043
vt 0.226299 0.824043
vt 0.434186 0.000201
vt 0.723240 0.018267
vt 0.434186 0.018267
vt 0.723240 0.036333
vt 0.434186 0.036333
vt 0.723240 0.054399
vt 0.434186 0.054399
vt 0.723240 0.072465
vt 0.434186 0.072465
vt 0.723240 0.090531
vt 0.434186 0.090531
vt 0.723240 0.108597
vt 0.434186 0.108597
vt 0.723240 0.126663
vt 0.434186 0.126663
vt 0.723240 0.144728
vt 0.434186 0.144728
vt 0.723240 0.162794
vt 0.434186 0.162794
vt 0.723240 0.180860
vt 0.434186 0.180860
vt 0.723240 0.198926
vt 0.434186 0.198926
vt 0.723240 0.216992
vt 0.434186 0.216992
vt 0.723240 0.235058
vt 0.434186 0.235058
vt 0.723240 0.253124
vt 0.434186 0.253124
vt 0.723240 0.271190
vt 0.434186 0.271190
vt 0.434186 0.289256
vt 0.723240 0.289256
vt 0.434186 0.307322
vt 0.723240 0.307322
vt 0.434186 0.325387
vt 0.723240 0.325387
vt 0.434186 0.343453
vt 0.723240 0.343453
vt 0.434186 0.361519
vt 0.723240 0.361519
vt 0.434186 0.379585
vt 0.723240 0.379585
vt 0.434186 0.397651
vt 0.723240 0.397651
vt 0.434186 0.415717
vt 0.723240 0.415717
vt 0.434186 0.433783
vt 0.723240 0.433783
vt 0.434186 0.451849
vt 0.723240 0.451849
vt 0.434186 0.469915
vt 0.723240 0.469915
vt 0.434186 0.487980
vt 0.723240 0.487980
vt 0.434186 0.506046
vt 0.723240 0.506046
vt 0.434186 0.524112
vt 0.723240 0.524112
vt 0.434186 0.542178
vt 0.552916 0.703191
vt 0.552916 0.730390
vt 0.428438 0.854869
vt 0.723240 0.542178
vt 0.434186 0.560244
vt 0.723240 0.560244
vt 0.434186 0.578310
vt 0.728949 0.098004
vt 0.723643 0.124680
vt 0.773701 0.245532
vt 0.289256 0.578310
vt 0.433783 0.433783
vt 0.553319 0.730390
vt 0.558625 0.757067
vt 0.569034 0.782195
vt 0.584145 0.804810
vt 0.625992 0.839154
vt 0.569034 0.651386
vt 0.651121 0.849562
vt 0.584145 0.628771
vt 0.677797 0.854869
vt 0.704996 0.854869
vt 0.603377 0.609539
vt 0.731673 0.849562
vt 0.651121 0.584019
vt 0.756801 0.839154
vt 0.677797 0.578713
vt 0.779416 0.824043
vt 0.798649 0.804810
vt 0.704996 0.578713
vt 0.813760 0.782195
vt 0.756801 0.594428
vt 0.824168 0.757067
vt 0.779416 0.609539
vt 0.829475 0.730390
vt 0.829475 0.703191
vt 0.798649 0.628771
vt 0.824168 0.676515
vt 0.813760 0.651386
vt 0.731673 0.584019
vt 0.625992 0.594428
vt 0.723240 0.000201
vt 0.547610 0.757067
vt 0.537201 0.782195
vt 0.480242 0.839154
vt 0.522090 0.804810
vt 0.502858 0.824043
vt 0.455114 0.849562
vt 0.401239 0.854869
vt 0.374562 0.849562
vt 0.547610 0.676515
vt 0.349434 0.839154
vt 0.522090 0.628771
vt 0.326818 0.824043
vt 0.502858 0.609539
vt 0.307586 0.804810
vt 0.480242 0.594428
vt 0.292475 0.782195
vt 0.455114 0.584019
vt 0.282066 0.757066
vt 0.276760 0.730390
vt 0.428438 0.578713
vt 0.276760 0.703191
vt 0.401239 0.578713
vt 0.282066 0.676515
vt 0.374562 0.584019
vt 0.292475 0.651386
vt 0.326818 0.609539
vt 0.307586 0.628771
vt 0.349434 0.594428
vt 0.537201 0.651386
vt 0.723240 0.578310
vt 0.723643 0.151879
vt 0.728949 0.178555
vt 0.739358 0.203684
vt 0.754469 0.226299
vt 0.796316 0.260642
vt 0.739358 0.072875
vt 0.821445 0.271051
vt 0.754469 0.050260
vt 0.848121 0.276357
vt 0.875320 0.276357
vt 0.773701 0.031027
vt 0.901996 0.271051
vt 0.821445 0.005508
vt 0.927125 0.260642
vt 0.848121 0.000201
vt 0.949740 0.245531
vt 0.968973 0.226299
vt 0.875320 0.000201
vt 0.984084 0.203684
vt 0.927125 0.015916
vt 0.994492 0.178555
vt 0.949740 0.031027
vt 0.999799 0.151879
vt 0.999799 0.124680
vt 0.968973 0.050260
vt 0.994492 0.098003
vt 0.984084 0.072875
vt 0.901996 0.005508
vt 0.796316 0.015916
s 1
usemtl マテリアル
f 2/1/1 3/2/2 1/3/3
f 4/4/4 7/5/5 3/2/2
f 8/6/6 5/7/7 7/5/5
f 6/8/8 1/9/3 5/7/7
f 7/5/5 1/10/3 3/11/2
f 4/12/4 6/8/8 8/6/6
f 9/13/9 41/14/10 10/15/11
f 10/15/11 41/14/10 11/16/12
f 11/16/12 41/14/10 12/17/13
f 12/17/13 41/14/10 13/18/14
f 13/18/14 41/14/10 14/19/15
f 14/19/15 41/14/10 15/20/16
f 15/20/16 41/14/10 16/21/17
f 16/21/17 41/14/10 17/22/18
f 17/22/18 41/14/10 18/23/19
f 18/23/19 41/14/10 19/24/20
f 19/24/20 41/14/10 20/25/21
f 20/25/21 41/14/10 21/26/22
f 21/26/22 41/14/10 22/27/23
f 22/27/23 41/14/10 23/28/24
f 23/28/24 41/14/10 24/29/25
f 24/29/25 41/14/10 25/30/26
f 25/30/26 41/14/10 26/31/27
f 26/31/27 41/14/10 27/32/28
f 27/32/28 41/14/10 28/33/29
f 28/33/29 41/14/10 29/34/30
f 29/34/30 41/14/10 30/35/31
f 30/35/31 41/14/10 31/36/32
f 31/36/32 41/14/10 32/37/33
f 32/37/33 41/14/10 33/38/34
f 33/38/34 41/14/10 34/39/35
f 34/39/35 41/14/10 35/40/36
f 35/40/36 41/14/10 36/41/37
f 36/41/37 41/14/10 37/42/38
f 37/42/38 41/14/10 38/43/39
f 38/43/39 41/14/10 39/44/40
f 38/45/39 39/46/40 12/47/13
f 39/44/40 41/14/10 40/48/41
f 40/48/41 41/14/10 9/13/9
f 42/49/42 45/50/43 44/51/44
f 44/51/44 47/52/45 46/53/46
f 46/53/46 49/54/47 48/55/48
f 48/55/48 51/56/49 50/57/50
f 50/57/50 53/58/51 52/59/52
f 52/59/52 55/60/53 54/61/54
f 54/61/54 57/62/55 56/63/56
f 56/63/56 59/64/57 58/65/58
f 58/65/58 61/66/59 60/67/60
f 60/67/60 63/68/61 62/69/62
f 62/69/62 65/70/63 64/71/64
f 64/71/64 67/72/65 66/73/66
f 66/73/66 69/74/67 68/75/68
f 68/75/68 71/76/69 70/77/70
f 70/77/70 73/78/71 72/79/72
f 73/78/71 74/80/73 72/79/72
f 75/81/74 76/82/75 74/80/73
f 77/83/76 78/84/77 76/82/75
f 79/85/78 80/86/79 78/84/77
f 81/87/80 82/88/81 80/86/79
f 83/89/82 84/90/83 82/88/81
f 85/91/84 86/92/85 84/90/83
f 87/93/86 88/94/87 86/92/85
f 89/95/88 90/96/89 88/94/87
f 91/97/90 92/98/91 90/96/89
f 93/99/92 94/100/93 92/98/91
f 95/101/94 96/102/95 94/100/93
f 97/103/96 98/104/97 96/102/95
f 99/105/98 100/106/99 98/104/97
f 101/107/100 102/108/101 100/106/99
f 51/109/49 49/110/47 99/111/98
f 103/112/102 104/113/103 102/108/101
f 105/114/104 42/115/42 104/113/103
f 100/116/99 102/117/101 48/118/48
f 2/1/1 4/4/4 3/2/2
f 4/4/4 8/6/6 7/5/5
f 8/6/6 6/8/8 5/7/7
f 6/8/8 2/119/1 1/9/3
f 7/5/5 5/7/7 1/10/3
f 4/12/4 2/120/1 6/8/8
f 40/121/41 9/122/9 10/123/11
f 10/123/11 11/124/12 40/121/41
f 11/124/12 12/47/13 39/46/40
f 40/121/41 11/124/12 39/46/40
f 12/47/13 13/125/14 37/126/38
f 13/125/14 14/127/15 36/128/37
f 14/127/15 15/129/16 36/128/37
f 15/129/16 16/130/17 35/131/36
f 36/128/37 15/129/16 35/131/36
f 16/130/17 17/132/18 33/133/34
f 17/132/18 18/134/19 32/135/33
f 18/134/19 19/136/20 32/135/33
f 19/136/20 20/137/21 31/138/32
f 32/135/33 19/136/20 31/138/32
f 20/137/21 21/139/22 29/140/30
f 21/139/22 22/141/23 28/142/29
f 22/141/23 23/143/24 28/142/29
f 23/143/24 24/144/25 27/145/28
f 28/142/29 23/143/24 27/145/28
f 24/144/25 25/146/26 26/147/27
f 26/147/27 27/145/28 24/144/25
f 28/142/29 29/140/30 21/139/22
f 29/140/30 30/148/31 20/137/21
f 30/148/31 31/138/32 20/137/21
f 32/135/33 33/133/34 17/132/18
f 33/133/34 34/149/35 16/130/17
f 34/149/35 35/131/36 16/130/17
f 36/128/37 37/126/38 13/125/14
f 37/126/38 38/45/39 12/47/13
f 42/49/42 43/150/105 45/50/43
f 44/51/44 45/50/43 47/52/45
f 46/53/46 47/52/45 49/54/47
f 48/55/48 49/54/47 51/56/49
f 50/57/50 51/56/49 53/58/51
f 52/59/52 53/58/51 55/60/53
f 54/61/54 55/60/53 57/62/55
f 56/63/56 57/62/55 59/64/57
f 58/65/58 59/64/57 61/66/59
f 60/67/60 61/66/59 63/68/61
f 62/69/62 63/68/61 65/70/63
f 64/71/64 65/70/63 67/72/65
f 66/73/66 67/72/65 69/74/67
f 68/75/68 69/74/67 71/76/69
f 70/77/70 71/76/69 73/78/71
f 73/78/71 75/81/74 74/80/73
f 75/81/74 77/83/76 76/82/75
f 77/83/76 79/85/78 78/84/77
f 79/85/78 81/87/80 80/86/79
f 81/87/80 83/89/82 82/88/81
f 83/89/82 85/91/84 84/90/83
f 85/91/84 87/93/86 86/92/85
f 87/93/86 89/95/88 88/94/87
f 89/95/88 91/97/90 90/96/89
f 91/97/90 93/99/92 92/98/91
f 93/99/92 95/101/94 94/100/93
f 95/101/94 97/103/96 96/102/95
f 97/103/96 99/105/98 98/104/97
f 99/105/98 101/107/100 100/106/99
f 101/107/100 103/112/102 102/108/101
f 47/151/45 45/152/43 103/153/102
f 45/152/43 43/154/105 105/155/104
f 103/153/102 45/152/43 105/155/104
f 103/153/102 101/156/100 47/151/45
f 101/156/100 99/111/98 49/110/47
f 47/151/45 101/156/100 49/110/47
f 99/111/98 97/157/96 51/109/49
f 97/157/96 95/158/94 53/159/51
f 51/109/49 97/157/96 53/159/51
f 95/158/94 93/160/92 57/161/55
f 93/160/92 91/162/90 59/163/57
f 91/162/90 89/164/88 61/165/59
f 89/164/88 87/166/86 63/167/61
f 87/166/86 85/168/84 63/167/61
f 85/168/84 83/169/82 65/170/63
f 63/167/61 85/168/84 65/170/63
f 83/169/82 81/171/80 67/172/65
f 81/171/80 79/173/78 69/174/67
f 67/172/65 81/171/80 69/174/67
f 79/173/78 77/175/76 73/176/71
f 77/175/76 75/177/74 73/176/71
f 73/176/71 71/178/69 79/173/78
f 71/178/69 69/174/67 79/173/78
f 67/172/65 65/170/63 83/169/82
f 63/167/61 61/165/59 89/164/88
f 61/165/59 59/163/57 91/162/90
f 59/163/57 57/161/55 93/160/92
f 57/161/55 55/179/53 95/158/94
f 55/179/53 53/159/51 95/158/94
f 103/112/102 105/114/104 104/113/103
f 105/114/104 43/180/105 42/115/42
f 104/181/103 42/182/42 44/183/44
f 44/183/44 46/184/46 104/181/103
f 46/184/46 48/118/48 102/117/101
f 104/181/103 46/184/46 102/117/101
f 48/118/48 50/185/50 98/186/97
f 50/185/50 52/187/52 96/188/95
f 52/187/52 54/189/54 96/188/95
f 54/189/54 56/190/56 94/191/93
f 96/188/95 54/189/54 94/191/93
f 56/190/56 58/192/58 90/193/89
f 58/192/58 60/194/60 88/195/87
f 60/194/60 62/196/62 88/195/87
f 62/196/62 64/197/64 86/198/85
f 88/195/87 62/196/62 86/198/85
f 64/197/64 66/199/66 82/200/81
f 66/199/66 68/201/68 80/202/79
f 68/201/68 70/203/70 80/202/79
f 70/203/70 72/204/72 78/205/77
f 80/202/79 70/203/70 78/205/77
f 72/204/72 74/206/73 76/207/75
f 76/207/75 78/205/77 72/204/72
f 80/202/79 82/200/81 66/199/66
f 82/200/81 84/208/83 64/197/64
f 84/208/83 86/198/85 64/197/64
f 88/195/87 90/193/89 58/192/58
f 90/193/89 92/209/91 56/190/56
f 92/209/91 94/191/93 56/190/56
f 96/188/95 98/186/97 50/185/50
f 98/186/97 100/116/99 48/118/48
