# Blender 4.1.1
# www.blender.org
mtllib EnemyBody.mtl
o Body
v 0.203102 0.346899 -0.203102
v 0.203102 0.135461 -0.203102
v 0.171813 0.346899 0.188911
v 0.171813 0.135461 0.188911
v -0.203102 0.346899 -0.203102
v -0.203102 0.135461 -0.203102
v -0.171813 0.346899 0.188911
v -0.171813 0.135461 0.188911
v -0.247609 0.112294 -0.000000
v 0.000000 0.112294 -0.247609
v 0.247609 0.241180 -0.247609
v -0.212467 0.241180 0.247609
v 0.212467 0.241180 0.247609
v -0.247609 0.241180 -0.247609
v -0.000000 0.370065 0.247609
v 0.247609 0.370065 0.000000
v -0.000000 0.112294 0.247609
v -0.247609 0.370065 -0.000000
v 0.000000 0.370065 -0.247609
v 0.247609 0.112294 0.000000
v -0.000000 0.418683 -0.000000
v 0.000000 0.241180 0.374028
v -0.298626 0.241180 -0.000000
v 0.000000 0.093100 0.000000
v 0.298626 0.241180 -0.000000
v 0.000000 0.241180 -0.341012
vn 0.1904 0.9698 -0.1523
vn -0.1523 0.9698 -0.1904
vn -0.1944 0.9626 0.1890
vn 0.1890 0.9626 0.1939
vn 0.3352 -0.5526 0.7631
vn 0.3910 0.6445 0.6571
vn -0.3910 0.6445 0.6571
vn -0.3352 -0.5526 0.7631
vn -0.8578 -0.3396 0.3858
vn -0.8291 0.4790 0.2885
vn -0.8770 0.4453 -0.1807
vn -0.9029 -0.3574 -0.2386
vn -0.0766 -0.9886 -0.1296
vn 0.1296 -0.9886 -0.0766
vn 0.1588 -0.9844 0.0763
vn -0.0764 -0.9855 0.1515
vn 0.9029 -0.3574 -0.2386
vn 0.8770 0.4453 -0.1807
vn 0.8291 0.4790 0.2885
vn 0.8578 -0.3396 0.3858
vn -0.2374 -0.5700 -0.7866
vn -0.3102 0.4768 -0.8224
vn 0.3102 0.4768 -0.8224
vn 0.2374 -0.5700 -0.7866
vn 0.1523 0.9698 -0.1904
vn -0.1904 0.9698 -0.1523
vn -0.1890 0.9626 0.1939
vn 0.1944 0.9626 0.1890
vn 0.3910 -0.6445 0.6571
vn 0.3352 0.5526 0.7631
vn -0.3352 0.5526 0.7631
vn -0.3910 -0.6445 0.6571
vn -0.8291 -0.4790 0.2885
vn -0.8578 0.3396 0.3858
vn -0.9029 0.3574 -0.2386
vn -0.8770 -0.4453 -0.1807
vn -0.1296 -0.9886 -0.0766
vn 0.0766 -0.9886 -0.1296
vn 0.0764 -0.9855 0.1515
vn -0.1588 -0.9844 0.0763
vn 0.8770 -0.4453 -0.1807
vn 0.9029 0.3574 -0.2386
vn 0.8578 0.3396 0.3858
vn 0.8291 -0.4790 0.2885
vn -0.3102 -0.4768 -0.8224
vn -0.2374 0.5700 -0.7866
vn 0.2374 0.5700 -0.7866
vn 0.3102 -0.4768 -0.8224
vt 0.051775 0.133026
vt 0.231673 0.312255
vt 0.012353 0.312702
vt 0.411571 0.133026
vt 0.231673 0.093394
vt 0.383856 0.480233
vt 0.231673 0.532010
vt 0.079490 0.480233
vt 0.955848 0.278090
vt 0.805533 0.403004
vt 0.839566 0.278090
vt 0.659212 0.918189
vt 0.848440 0.803984
vt 0.916389 0.918189
vt 0.080828 0.535729
vt 0.270056 0.649934
vt 0.012879 0.649934
vt 0.836140 0.636643
vt 0.986454 0.761557
vt 0.870172 0.761557
vt 0.064605 0.959598
vt 0.258719 0.824757
vt 0.257325 0.955010
vt 0.041661 0.779450
vt 0.013388 0.851359
vt 0.398377 0.779450
vt 0.462695 0.853115
vt 0.421321 0.959598
vt 0.794481 0.714757
vt 0.616097 0.536579
vt 0.833572 0.536487
vt 0.437713 0.714757
vt 0.616097 0.753959
vt 0.465194 0.370459
vt 0.616097 0.319016
vt 0.767000 0.370459
vt 0.481450 0.252052
vt 0.644052 0.117212
vt 0.645447 0.247464
vt 0.504394 0.071904
vt 0.440076 0.145570
vt 0.861110 0.071904
vt 0.889383 0.143813
vt 0.838166 0.252052
vt 0.616097 0.835372
vt 0.231673 0.011852
vt 0.450993 0.094578
vt 0.012353 0.094578
vt 0.450993 0.312702
vt 0.957797 0.466296
vt 0.663752 0.843113
vt 0.265516 0.574857
vt 0.988404 0.573351
vt 0.229353 0.735385
vt 0.398622 0.536487
vt 0.673418 0.027839
vt 0.833572 0.753339
vt 0.398622 0.753339
s 0
usemtl Material
f 1/1/1 21/2/1 16/3/1
f 5/4/2 21/2/2 19/5/2
f 21/2/3 7/6/3 15/7/3
f 21/2/4 3/8/4 16/3/4
f 13/9/5 17/10/5 4/11/5
f 13/12/6 15/13/6 22/14/6
f 15/15/7 12/16/7 22/17/7
f 17/18/8 12/19/8 8/20/8
f 8/21/9 23/22/9 9/23/9
f 7/24/10 23/22/10 12/25/10
f 23/22/11 5/26/11 14/27/11
f 23/22/12 6/28/12 9/23/12
f 6/29/13 24/30/13 9/31/13
f 2/32/14 24/30/14 10/33/14
f 24/30/15 4/34/15 17/35/15
f 24/30/16 8/36/16 9/31/16
f 2/37/17 25/38/17 20/39/17
f 1/40/18 25/38/18 11/41/18
f 25/38/19 3/42/19 13/43/19
f 25/38/20 4/44/20 20/39/20
f 6/29/21 26/45/21 10/33/21
f 5/4/22 26/46/22 14/47/22
f 26/46/23 1/1/23 11/48/23
f 26/45/24 2/32/24 10/33/24
f 1/1/25 19/5/25 21/2/25
f 5/4/26 18/49/26 21/2/26
f 21/2/27 18/49/27 7/6/27
f 21/2/28 15/7/28 3/8/28
f 13/9/29 22/50/29 17/10/29
f 13/12/30 3/51/30 15/13/30
f 15/15/31 7/52/31 12/16/31
f 17/18/32 22/53/32 12/19/32
f 8/21/33 12/25/33 23/22/33
f 7/24/34 18/54/34 23/22/34
f 23/22/35 18/54/35 5/26/35
f 23/22/36 14/27/36 6/28/36
f 6/29/37 10/33/37 24/30/37
f 2/32/38 20/55/38 24/30/38
f 24/30/39 20/55/39 4/34/39
f 24/30/40 17/35/40 8/36/40
f 2/37/41 11/41/41 25/38/41
f 1/40/42 16/56/42 25/38/42
f 25/38/43 16/56/43 3/42/43
f 25/38/44 13/43/44 4/44/44
f 6/29/45 14/57/45 26/45/45
f 5/4/46 19/5/46 26/46/46
f 26/46/47 19/5/47 1/1/47
f 26/45/48 11/58/48 2/32/48
