# Blender 4.1.1
# www.blender.org
mtllib float_R_arm.mtl
o 球.003
v -0.628131 -0.742493 0.208027
v -0.628131 -0.742493 -0.187382
v -0.005108 0.014764 0.208027
v -0.365462 -0.879355 0.208027
v -0.365462 -0.879355 -0.187382
v -0.030373 -0.214943 0.208027
v -0.030373 -0.214943 -0.187382
v -0.005108 0.014764 -0.187382
vn -0.7722 0.6353 -0.0000
vn -0.4621 -0.8868 -0.0000
vn -0.0000 -0.0000 1.0000
vn 0.8929 -0.4503 -0.0000
vn 0.9940 -0.1093 -0.0000
vn -0.0000 -0.0000 -1.0000
vt 0.820762 0.995271
vt 0.650226 0.234978
vt 0.907800 0.265707
vt 0.453403 0.203502
vt 0.179917 0.023993
vt 0.438601 0.004729
vt 0.238174 0.806295
vt 0.004729 0.283047
vt 0.194719 0.222767
vt 0.496858 0.787031
vt 0.510931 0.976007
vt 0.563188 0.964542
vt 0.198867 0.991673
vt 0.252247 0.995271
s 0
usemtl マテリアル
f 3/1/1 2/2/1 1/3/1
f 5/4/2 1/5/2 2/6/2
f 6/7/3 1/8/3 4/9/3
f 7/10/4 4/9/4 5/4/4
f 8/11/5 6/7/5 7/10/5
f 2/2/6 7/10/6 5/4/6
f 3/1/1 8/12/1 2/2/1
f 5/4/2 4/9/2 1/5/2
f 6/7/3 3/13/3 1/8/3
f 7/10/4 6/7/4 4/9/4
f 8/11/5 3/14/5 6/7/5
f 2/2/6 8/12/6 7/10/6
