# Blender 4.1.1
# www.blender.org
mtllib plateau.mtl
o plateau
v 4.943686 0.000000 -4.918847
v -5.017841 0.000000 -5.206244
v 5.343213 0.000000 5.594735
v -5.249660 0.000000 5.189107
v 5.765936 0.000000 3.589430
v 5.400277 0.000000 1.798053
v 5.539503 0.000000 0.076985
v 5.738051 0.000000 -1.712073
v 5.363676 0.000000 -3.427245
v 3.455782 0.000000 -5.326965
v 1.790416 0.000000 -5.621254
v 0.000551 0.000000 -5.538594
v -1.789314 0.000000 -5.746220
v -3.477089 0.000000 -5.550487
v -5.347411 0.000000 -3.516543
v -5.699265 0.000000 -1.790663
v -5.718226 0.000000 -0.000798
v -5.529940 0.000000 1.738490
v -5.597143 0.000000 3.362318
v -3.591975 0.000000 5.567807
v -1.889866 0.000000 5.668314
v -0.025610 0.000000 5.275383
v 1.771971 0.000000 5.407123
v 3.499439 0.000000 5.703773
v 4.602892 0.506173 -4.579533
v -4.672970 0.506173 -4.847149
v 4.974919 0.506173 5.210386
v -4.888833 0.506173 4.832677
v 5.368546 0.506173 3.343108
v 5.028056 0.506173 1.675033
v 5.157699 0.506173 0.072429
v 5.342581 0.506173 -1.593486
v 4.993974 0.506173 -3.190600
v 3.217402 0.506173 -4.959560
v 1.666666 0.506173 -5.233593
v -0.000000 0.506173 -5.156622
v -1.666667 0.506173 -5.349957
v -3.238270 0.506173 -5.167696
v -4.979856 0.506173 -3.273752
v -5.307491 0.506173 -1.666666
v -5.325147 0.506173 0.000000
v -5.149820 0.506173 1.619571
v -5.212398 0.506173 3.131629
v -3.345249 0.506173 5.185311
v -1.760298 0.506173 5.278900
v -0.024360 0.506173 4.913015
v 1.649491 0.506173 5.035686
v 3.258054 0.506173 5.311918
v 3.331045 0.506173 -3.327650
v 3.425981 0.506173 -1.648984
v 3.365182 0.506173 0.015267
v 3.307280 0.506173 1.666788
v 3.453424 0.506173 3.396220
v 1.666667 0.506173 -3.401528
v 1.666667 0.506173 -1.666666
v 1.666667 0.506173 0.000000
v 1.666667 0.506173 1.666667
v 1.665726 0.506173 3.333686
v -0.000000 0.506173 -3.346169
v -0.000000 0.506173 -1.666666
v 0.000000 0.506173 0.000000
v 0.000000 0.506173 1.666667
v -0.001973 0.506173 3.290812
v -1.666667 0.506173 -3.428841
v -1.666667 0.506173 -1.666666
v -1.666667 0.506173 0.000000
v -1.666667 0.506173 1.666667
v -1.694259 0.506173 3.423037
v -3.329372 0.506173 -3.374182
v -3.407558 0.506173 -1.666666
v -3.405404 0.506173 0.000000
v -3.345034 0.506173 1.666666
v -3.419477 0.506173 3.339513
v 4.943686 -6.933063 -4.918847
v -5.017841 -6.933063 -5.206244
v 5.343213 -6.933063 5.594735
v -5.249660 -6.933063 5.189107
v 5.765936 -6.933063 3.589430
v 5.400277 -6.933063 1.798053
v 5.539503 -6.933063 0.076985
v 5.738051 -6.933063 -1.712073
v 5.363676 -6.933063 -3.427245
v 3.455782 -6.933063 -5.326965
v 1.790416 -6.933063 -5.621254
v 0.000551 -6.933063 -5.538594
v -1.789314 -6.933063 -5.746220
v -3.477089 -6.933063 -5.550487
v -5.347411 -6.933063 -3.516543
v -5.699265 -6.933063 -1.790663
v -5.718226 -6.933063 -0.000798
v -5.529940 -6.933063 1.738490
v -5.597143 -6.933063 3.362318
v -3.591975 -6.933063 5.567807
v -1.889866 -6.933063 5.668314
v -0.025610 -6.933063 5.275383
v 1.771971 -6.933063 5.407123
v 3.499439 -6.933063 5.703773
vn 0.1740 -0.0000 -0.9847
vn -0.9942 -0.0000 0.1076
vn -0.9824 -0.0000 0.1869
vn 0.2645 -0.0000 -0.9644
vn -0.9999 -0.0000 -0.0106
vn -0.2180 -0.0000 -0.9759
vn -0.1692 -0.0000 0.9856
vn 0.9770 -0.0000 -0.2133
vn -0.9798 -0.0000 -0.1998
vn 0.9626 -0.0000 -0.2710
vn -0.0731 -0.0000 0.9973
vn 0.9939 -0.0000 0.1103
vn -0.9815 -0.0000 -0.1914
vn 0.2062 -0.0000 0.9785
vn 0.9967 -0.0000 0.0806
vn -0.1152 -0.0000 -0.9933
vn -0.0589 -0.0000 0.9983
vn 0.9798 -0.0000 -0.2000
vn 0.1152 -0.0000 -0.9933
vn -0.2227 -0.0000 0.9749
vn 0.9785 -0.0000 0.2063
vn -0.0461 -0.0000 -0.9989
vn -0.9991 -0.0000 -0.0414
vn 0.0590 -0.0000 0.9983
vn -0.0000 1.0000 -0.0000
vn 0.0461 0.6251 0.7791
vn -0.8029 0.5952 -0.0332
vn -0.0368 0.6019 -0.7977
vn 0.7387 0.6558 0.1557
vn -0.1701 0.6455 0.7445
vn 0.0922 0.5999 -0.7948
vn 0.8133 0.5577 -0.1660
vn -0.0464 0.6165 0.7860
vn -0.0897 0.6273 -0.7736
vn 0.7964 0.6013 0.0644
vn 0.1690 0.5735 0.8016
vn -0.7647 0.6269 -0.1492
vn 0.7949 0.6004 0.0882
vn -0.0595 0.5812 0.8116
vn 0.7408 0.6386 -0.2086
vn -0.7624 0.6282 -0.1554
vn 0.7580 0.6310 -0.1654
vn -0.1398 0.5636 0.8141
vn -0.1669 0.6436 -0.7469
vn -0.7898 0.6133 -0.0084
vn 0.2041 0.6362 -0.7441
vn -0.7552 0.6395 0.1437
vn -0.7870 0.6110 0.0852
vn 0.1361 0.6231 -0.7702
vt 0.898710 0.067501
vt 0.866180 0.739638
vt 0.866180 0.067882
vt 0.597935 0.067845
vt 0.564225 0.739298
vt 0.564225 0.067489
vt 0.532634 0.067530
vt 0.497300 0.738736
vt 0.497300 0.066927
vt 0.927857 0.066935
vt 0.898710 0.739258
vt 0.632729 0.067885
vt 0.597935 0.739654
vt 0.763862 0.067530
vt 0.734119 0.738682
vt 0.734119 0.066925
vt 0.086859 0.067010
vt 0.053057 0.739321
vt 0.053057 0.067335
vt 0.321117 0.068071
vt 0.287458 0.739446
vt 0.287458 0.067627
vt 0.666442 0.067411
vt 0.632729 0.739694
vt 0.258097 0.738915
vt 0.258097 0.067096
vt 0.121883 0.066932
vt 0.086859 0.738996
vt 0.355667 0.067634
vt 0.321117 0.739890
vt 0.699441 0.066971
vt 0.666442 0.739220
vt 0.157759 0.067627
vt 0.121883 0.738918
vt 0.388954 0.067293
vt 0.355667 0.739453
vt 0.796547 0.067912
vt 0.763862 0.739287
vt 0.190902 0.067589
vt 0.157759 0.739614
vt 0.424085 0.067718
vt 0.388954 0.739112
vt 0.831446 0.067671
vt 0.796547 0.739668
vt 0.223418 0.067139
vt 0.190902 0.739575
vt 0.462622 0.066922
vt 0.424085 0.739538
vt 0.831446 0.739428
vt 0.532634 0.739339
vt 0.017339 0.739043
vt 0.017339 0.067057
vt 0.903268 0.811820
vt 0.932483 0.783447
vt 0.939141 0.813499
vt 0.903491 0.945437
vt 0.938564 0.975248
vt 0.902214 0.982661
vt 0.935593 0.910578
vt 0.940758 0.941885
vt 0.902504 0.910676
vt 0.933423 0.878023
vt 0.904671 0.845369
vt 0.901884 0.878251
vt 0.940758 0.844323
vt 0.748295 0.966763
vt 0.772794 0.942198
vt 0.775246 0.974544
vt 0.805415 0.944259
vt 0.806249 0.981525
vt 0.838658 0.978144
vt 0.837776 0.943290
vt 0.869830 0.975828
vt 0.741084 0.939780
vt 0.771571 0.909833
vt 0.805297 0.910055
vt 0.837697 0.910268
vt 0.869890 0.942375
vt 0.737665 0.877209
vt 0.735955 0.909599
vt 0.772860 0.877440
vt 0.805510 0.877655
vt 0.870310 0.878081
vt 0.870097 0.910481
vt 0.771466 0.845029
vt 0.805723 0.845255
vt 0.838123 0.845468
vt 0.837910 0.877868
vt 0.870523 0.845681
vt 0.737864 0.814255
vt 0.734119 0.844784
vt 0.772741 0.812713
vt 0.838346 0.811667
vt 0.870738 0.813053
vt 0.744279 0.786405
vt 0.774905 0.780640
vt 0.805946 0.811412
vt 0.806189 0.774477
vt 0.870053 0.777962
vt 0.899456 0.776939
vt 0.024817 0.017456
vt 0.058077 0.017715
vt 0.537304 0.017901
vt 0.566721 0.017863
vt 0.863998 0.018230
vt 0.454810 0.017339
vt 0.216712 0.017532
vt 0.799157 0.018258
vt 0.831655 0.018034
vt 0.418925 0.018080
vt 0.186434 0.017951
vt 0.768722 0.017903
vt 0.386213 0.017684
vt 0.155572 0.017987
vt 0.692630 0.017380
vt 0.323045 0.018409
vt 0.355217 0.018002
vt 0.089552 0.017412
vt 0.122166 0.017339
vt 0.264362 0.017501
vt 0.291702 0.017995
vt 0.661903 0.017790
vt 0.741027 0.017339
vt 0.630510 0.018231
vt 0.921430 0.017349
vt 0.504403 0.017339
vt 0.598111 0.018194
vt 0.894289 0.017875
vt 0.927857 0.738692
vt 0.699441 0.738779
vt 0.223418 0.739125
vt 0.462622 0.738741
vt 0.838591 0.774347
s 0
usemtl マテリアル.013
f 10/1/1 84/2/1 11/3/1
f 17/4/2 91/5/2 18/6/2
f 19/7/3 77/8/3 4/9/3
f 1/10/4 83/11/4 10/1/4
f 16/12/5 90/13/5 17/4/5
f 14/14/6 75/15/6 2/16/6
f 23/17/7 97/18/7 24/19/7
f 8/20/8 82/21/8 9/22/8
f 15/23/9 89/24/9 16/12/9
f 9/22/10 74/25/10 1/26/10
f 22/27/11 96/28/11 23/17/11
f 7/29/12 81/30/12 8/20/12
f 2/31/13 88/32/13 15/23/13
f 21/33/14 95/34/14 22/27/14
f 6/35/15 80/36/15 7/29/15
f 13/37/16 87/38/16 14/14/16
f 20/39/17 94/40/17 21/33/17
f 5/41/18 79/42/18 6/35/18
f 12/43/19 86/44/19 13/37/19
f 4/45/20 93/46/20 20/39/20
f 3/47/21 78/48/21 5/41/21
f 11/3/22 85/49/22 12/43/22
f 18/6/23 92/50/23 19/7/23
f 24/19/24 76/51/24 3/52/24
f 73/53/25 28/54/25 44/55/25
f 53/56/25 27/57/25 29/58/25
f 53/56/25 47/59/25 48/60/25
f 58/61/25 46/62/25 47/59/25
f 68/63/25 46/62/25 63/64/25
f 68/63/25 44/55/25 45/65/25
f 25/66/25 49/67/25 33/68/25
f 33/68/25 50/69/25 32/70/25
f 50/69/25 31/71/25 32/70/25
f 51/72/25 30/73/25 31/71/25
f 30/73/25 53/56/25 29/58/25
f 34/74/25 54/75/25 49/67/25
f 49/67/25 55/76/25 50/69/25
f 55/76/25 51/72/25 50/69/25
f 56/77/25 52/78/25 51/72/25
f 52/78/25 58/61/25 53/56/25
f 36/79/25 54/75/25 35/80/25
f 59/81/25 55/76/25 54/75/25
f 60/82/25 56/77/25 55/76/25
f 56/77/25 62/83/25 57/84/25
f 57/84/25 63/64/25 58/61/25
f 36/79/25 64/85/25 59/81/25
f 59/81/25 65/86/25 60/82/25
f 60/82/25 66/87/25 61/88/25
f 66/87/25 62/83/25 61/88/25
f 67/89/25 63/64/25 62/83/25
f 38/90/25 64/85/25 37/91/25
f 69/92/25 65/86/25 64/85/25
f 65/86/25 71/93/25 66/87/25
f 66/87/25 72/94/25 67/89/25
f 72/94/25 68/63/25 67/89/25
f 26/95/25 69/92/25 38/90/25
f 39/96/25 70/97/25 69/92/25
f 40/98/25 71/93/25 70/97/25
f 71/93/25 42/99/25 72/94/25
f 72/94/25 43/100/25 73/53/25
f 24/19/26 27/101/26 48/102/26
f 18/6/27 43/103/27 42/104/27
f 12/43/28 35/105/28 11/3/28
f 5/41/29 27/106/29 3/47/29
f 20/39/30 28/107/30 4/45/30
f 12/43/31 37/108/31 36/109/31
f 6/35/32 29/110/32 5/41/32
f 21/33/33 44/111/33 20/39/33
f 13/37/34 38/112/34 37/108/34
f 7/29/35 30/113/35 6/35/35
f 22/27/36 45/114/36 21/33/36
f 15/23/37 26/115/37 2/31/37
f 7/29/38 32/116/38 31/117/38
f 22/27/39 47/118/39 46/119/39
f 9/22/40 25/120/40 33/121/40
f 16/12/41 39/122/41 15/23/41
f 8/20/42 33/121/42 32/116/42
f 23/17/43 48/102/43 47/118/43
f 14/14/44 26/123/44 38/112/44
f 17/4/45 40/124/45 16/12/45
f 10/1/46 25/125/46 1/10/46
f 19/7/47 28/126/47 43/103/47
f 17/4/48 42/104/48 41/127/48
f 11/3/49 34/128/49 10/1/49
f 10/1/1 83/11/1 84/2/1
f 17/4/2 90/13/2 91/5/2
f 19/7/3 92/50/3 77/8/3
f 1/10/4 74/129/4 83/11/4
f 16/12/5 89/24/5 90/13/5
f 14/14/6 87/38/6 75/15/6
f 23/17/7 96/28/7 97/18/7
f 8/20/8 81/30/8 82/21/8
f 15/23/9 88/32/9 89/24/9
f 9/22/10 82/21/10 74/25/10
f 22/27/11 95/34/11 96/28/11
f 7/29/12 80/36/12 81/30/12
f 2/31/13 75/130/13 88/32/13
f 21/33/14 94/40/14 95/34/14
f 6/35/15 79/42/15 80/36/15
f 13/37/16 86/44/16 87/38/16
f 20/39/17 93/46/17 94/40/17
f 5/41/18 78/48/18 79/42/18
f 12/43/19 85/49/19 86/44/19
f 4/45/20 77/131/20 93/46/20
f 3/47/21 76/132/21 78/48/21
f 11/3/22 84/2/22 85/49/22
f 18/6/23 91/5/23 92/50/23
f 24/19/24 97/18/24 76/51/24
f 73/53/25 43/100/25 28/54/25
f 53/56/25 48/60/25 27/57/25
f 53/56/25 58/61/25 47/59/25
f 58/61/25 63/64/25 46/62/25
f 68/63/25 45/65/25 46/62/25
f 68/63/25 73/53/25 44/55/25
f 25/66/25 34/74/25 49/67/25
f 33/68/25 49/67/25 50/69/25
f 50/69/25 51/72/25 31/71/25
f 51/72/25 52/78/25 30/73/25
f 30/73/25 52/78/25 53/56/25
f 34/74/25 35/80/25 54/75/25
f 49/67/25 54/75/25 55/76/25
f 55/76/25 56/77/25 51/72/25
f 56/77/25 57/84/25 52/78/25
f 52/78/25 57/84/25 58/61/25
f 36/79/25 59/81/25 54/75/25
f 59/81/25 60/82/25 55/76/25
f 60/82/25 61/88/25 56/77/25
f 56/77/25 61/88/25 62/83/25
f 57/84/25 62/83/25 63/64/25
f 36/79/25 37/91/25 64/85/25
f 59/81/25 64/85/25 65/86/25
f 60/82/25 65/86/25 66/87/25
f 66/87/25 67/89/25 62/83/25
f 67/89/25 68/63/25 63/64/25
f 38/90/25 69/92/25 64/85/25
f 69/92/25 70/97/25 65/86/25
f 65/86/25 70/97/25 71/93/25
f 66/87/25 71/93/25 72/94/25
f 72/94/25 73/53/25 68/63/25
f 26/95/25 39/96/25 69/92/25
f 39/96/25 40/98/25 70/97/25
f 40/98/25 41/133/25 71/93/25
f 71/93/25 41/133/25 42/99/25
f 72/94/25 42/99/25 43/100/25
f 24/19/26 3/52/26 27/101/26
f 18/6/27 19/7/27 43/103/27
f 12/43/28 36/109/28 35/105/28
f 5/41/29 29/110/29 27/106/29
f 20/39/30 44/111/30 28/107/30
f 12/43/31 13/37/31 37/108/31
f 6/35/32 30/113/32 29/110/32
f 21/33/33 45/114/33 44/111/33
f 13/37/34 14/14/34 38/112/34
f 7/29/35 31/117/35 30/113/35
f 22/27/36 46/119/36 45/114/36
f 15/23/37 39/122/37 26/115/37
f 7/29/38 8/20/38 32/116/38
f 22/27/39 23/17/39 47/118/39
f 9/22/40 1/26/40 25/120/40
f 16/12/41 40/124/41 39/122/41
f 8/20/42 9/22/42 33/121/42
f 23/17/43 24/19/43 48/102/43
f 14/14/44 2/16/44 26/123/44
f 17/4/45 41/127/45 40/124/45
f 10/1/46 34/128/46 25/125/46
f 19/7/47 4/9/47 28/126/47
f 17/4/48 18/6/48 42/104/48
f 11/3/49 35/105/49 34/128/49
