# Blender 4.1.1
# www.blender.org
mtllib crystal2.mtl
o 立方体
v 1.000000 0.000000 0.000000
v -0.000000 -1.000000 0.000000
v 0.000000 1.000000 -0.000000
v 0.000000 -0.000000 -1.000000
v -1.000000 0.000000 -0.000000
v -0.000000 0.000000 1.000000
v 0.001633 -1.697370 0.000000
v -0.143088 -1.586814 -0.105145
v 0.056911 -1.586814 -0.170130
v 0.180518 -1.586813 0.000000
v 0.056910 -1.586814 0.170130
v -0.143088 -1.586814 0.105145
v -0.053645 -1.407926 -0.170130
v 0.146355 -1.407926 -0.105145
v 0.146355 -1.407926 0.105145
v -0.053646 -1.407926 0.170130
v -0.177253 -1.407927 0.000000
v 0.001633 -1.297370 0.000000
v 0.034124 -1.667501 -0.099999
v -0.083431 -1.667501 -0.061802
v -0.050941 -1.602517 -0.161802
v -0.168497 -1.602517 0.000000
v -0.083432 -1.667501 0.061802
v 0.106778 -1.667500 0.000000
v 0.139271 -1.602517 -0.099999
v 0.034124 -1.667501 0.099999
v 0.139271 -1.602517 0.099999
v -0.050941 -1.602517 0.161802
v -0.188579 -1.497370 -0.061803
v -0.188579 -1.497370 0.061803
v 0.001633 -1.497370 -0.200000
v -0.115924 -1.497370 -0.161803
v 0.191845 -1.497370 -0.061803
v 0.119190 -1.497370 -0.161803
v 0.119189 -1.497370 0.161803
v 0.191845 -1.497370 0.061803
v -0.115925 -1.497370 0.161803
v 0.001633 -1.497370 0.200000
v -0.136006 -1.392223 -0.099999
v 0.054206 -1.392222 -0.161802
v 0.171762 -1.392223 0.000000
v 0.054206 -1.392222 0.161802
v -0.136006 -1.392223 0.099999
v -0.030859 -1.327239 -0.099999
v -0.103513 -1.327240 0.000000
v 0.086698 -1.327239 -0.061802
v 0.086698 -1.327239 0.061802
v -0.030859 -1.327239 0.099999
v 0.000000 1.300000 -0.000000
v -0.144721 1.410556 -0.105145
v 0.055278 1.410556 -0.170130
v 0.178885 1.410557 -0.000000
v 0.055278 1.410556 0.170130
v -0.144721 1.410556 0.105145
v -0.055278 1.589444 -0.170130
v 0.144721 1.589444 -0.105145
v 0.144721 1.589444 0.105145
v -0.055278 1.589444 0.170130
v -0.178885 1.589443 -0.000000
v 0.000000 1.700000 -0.000000
v 0.032491 1.329869 -0.099999
v -0.085065 1.329869 -0.061802
v -0.052574 1.394853 -0.161802
v -0.170130 1.394853 -0.000000
v -0.085065 1.329869 0.061802
v 0.105146 1.329870 -0.000000
v 0.137638 1.394853 -0.099999
v 0.032491 1.329869 0.099999
v 0.137638 1.394853 0.099999
v -0.052574 1.394853 0.161802
v -0.190212 1.500000 -0.061803
v -0.190212 1.500000 0.061803
v 0.000000 1.500000 -0.200000
v -0.117557 1.500000 -0.161803
v 0.190212 1.500000 -0.061803
v 0.117557 1.500000 -0.161803
v 0.117557 1.500000 0.161803
v 0.190212 1.500000 0.061803
v -0.117557 1.500000 0.161803
v -0.000000 1.500000 0.200000
v -0.137638 1.605147 -0.099999
v 0.052574 1.605147 -0.161802
v 0.170130 1.605147 -0.000000
v 0.052574 1.605147 0.161802
v -0.137638 1.605147 0.099999
v -0.032491 1.670131 -0.099999
v -0.105146 1.670130 -0.000000
v 0.085065 1.670131 -0.061802
v 0.085065 1.670131 0.061802
v -0.032491 1.670131 0.099999
vn 0.5774 -0.5774 -0.5774
vn 0.5774 0.5774 -0.5774
vn 0.5774 -0.5774 0.5774
vn 0.5774 0.5774 0.5774
vn -0.5774 -0.5774 -0.5774
vn -0.5774 0.5774 -0.5774
vn -0.5774 -0.5774 0.5774
vn -0.5774 0.5774 0.5774
vn -0.1024 -0.9435 -0.3151
vn -0.7002 -0.6617 -0.2680
vn 0.2680 -0.9435 -0.1947
vn 0.2680 -0.9435 0.1947
vn -0.1024 -0.9435 0.3151
vn -0.9050 -0.3304 -0.2680
vn -0.0248 -0.3304 -0.9435
vn 0.8897 -0.3304 -0.3151
vn 0.5746 -0.3304 0.7488
vn -0.5346 -0.3304 0.7779
vn -0.8026 -0.1256 -0.5831
vn 0.3066 -0.1256 -0.9435
vn 0.9921 -0.1256 -0.0000
vn 0.3066 -0.1256 0.9435
vn -0.8026 -0.1256 0.5831
vn -0.4089 0.6617 -0.6284
vn 0.4713 0.6617 -0.5831
vn 0.7002 0.6617 0.2680
vn -0.0385 0.6617 0.7488
vn -0.7240 0.6617 0.1947
vn -0.2680 0.9435 0.1947
vn -0.4911 0.7947 0.3568
vn -0.4089 0.6617 0.6284
vn 0.1024 0.9435 0.3151
vn 0.1876 0.7947 0.5773
vn 0.4713 0.6617 0.5831
vn 0.3313 0.9435 -0.0000
vn 0.6071 0.7947 -0.0000
vn 0.7002 0.6617 -0.2680
vn 0.1024 0.9435 -0.3151
vn 0.1876 0.7947 -0.5773
vn -0.0385 0.6617 -0.7488
vn -0.2680 0.9435 -0.1947
vn -0.4911 0.7947 -0.3568
vn -0.7240 0.6617 -0.1947
vn -0.8897 0.3304 0.3151
vn -0.7947 0.1876 0.5773
vn -0.5746 0.3304 0.7488
vn 0.0247 0.3304 0.9435
vn 0.3035 0.1876 0.9342
vn 0.5346 0.3304 0.7779
vn 0.9050 0.3304 0.2680
vn 0.9822 0.1876 -0.0000
vn 0.9050 0.3304 -0.2680
vn 0.5346 0.3304 -0.7779
vn 0.3035 0.1876 -0.9342
vn 0.0247 0.3304 -0.9435
vn -0.5746 0.3304 -0.7488
vn -0.7947 0.1876 -0.5773
vn -0.8897 0.3304 -0.3151
vn -0.3066 0.1256 0.9435
vn -0.3035 -0.1876 0.9342
vn -0.0248 -0.3304 0.9435
vn 0.8026 0.1256 0.5831
vn 0.7947 -0.1876 0.5774
vn 0.8897 -0.3304 0.3151
vn 0.8026 0.1256 -0.5831
vn 0.7947 -0.1876 -0.5774
vn 0.5746 -0.3304 -0.7488
vn -0.3066 0.1256 -0.9435
vn -0.3035 -0.1876 -0.9342
vn -0.5346 -0.3304 -0.7779
vn -0.9921 0.1256 -0.0000
vn -0.9822 -0.1876 -0.0000
vn -0.9050 -0.3304 0.2680
vn -0.4713 -0.6617 0.5831
vn -0.1876 -0.7947 0.5773
vn 0.0385 -0.6617 0.7488
vn 0.4089 -0.6617 0.6284
vn 0.4911 -0.7947 0.3568
vn 0.7240 -0.6617 0.1947
vn 0.7240 -0.6617 -0.1947
vn 0.4911 -0.7947 -0.3568
vn 0.4089 -0.6617 -0.6284
vn -0.7002 -0.6617 0.2680
vn -0.6071 -0.7947 -0.0000
vn -0.3313 -0.9435 -0.0000
vn 0.0385 -0.6617 -0.7488
vn -0.1876 -0.7947 -0.5773
vn -0.4713 -0.6617 -0.5831
vn -0.7947 0.1876 0.5774
vn 0.0248 0.3304 0.9435
vn 0.0248 0.3304 -0.9435
vn -0.7947 0.1876 -0.5774
vt 0.124338 0.871899
vt 0.062441 0.933796
vt 0.062441 0.810002
vt 0.222605 0.887251
vt 0.310140 0.799716
vt 0.310140 0.887251
vt 0.186235 0.810002
vt 0.397675 0.887251
vt 0.186235 0.933796
vt 0.488104 0.843619
vt 0.488104 0.931155
vt 0.400569 0.931155
vt 0.504452 0.930772
vt 0.591987 0.843237
vt 0.591987 0.930772
vt 0.334753 0.592812
vt 0.389887 0.560981
vt 0.389887 0.624643
vt 0.445020 0.529150
vt 0.389887 0.497319
vt 0.445020 0.465488
vt 0.334753 0.083516
vt 0.389887 0.051685
vt 0.389887 0.115347
vt 0.334753 0.210840
vt 0.389887 0.179009
vt 0.389887 0.242671
vt 0.334753 0.338164
vt 0.389887 0.306333
vt 0.389887 0.369995
vt 0.500153 0.497319
vt 0.445020 0.656474
vt 0.445020 0.592812
vt 0.500154 0.624643
vt 0.445020 0.147178
vt 0.445020 0.083516
vt 0.500153 0.115347
vt 0.445020 0.274502
vt 0.445020 0.210840
vt 0.500153 0.242671
vt 0.445020 0.401826
vt 0.445020 0.338164
vt 0.500153 0.369995
vt 0.500154 0.560981
vt 0.500154 0.688305
vt 0.500153 0.179009
vt 0.500153 0.306333
vt 0.500153 0.433657
vt 0.555287 0.592812
vt 0.555287 0.529150
vt 0.610420 0.560981
vt 0.555287 0.720136
vt 0.555287 0.656474
vt 0.610420 0.688305
vt 0.555287 0.210840
vt 0.555287 0.147178
vt 0.610420 0.179009
vt 0.555287 0.338164
vt 0.555287 0.274502
vt 0.610420 0.306333
vt 0.555287 0.465488
vt 0.555287 0.401826
vt 0.610420 0.433657
vt 0.610420 0.369995
vt 0.665554 0.401826
vt 0.610420 0.242671
vt 0.665554 0.274502
vt 0.610420 0.115347
vt 0.665554 0.147178
vt 0.555287 0.083516
vt 0.610420 0.624643
vt 0.665554 0.656474
vt 0.610420 0.497319
vt 0.665554 0.529150
vt 0.500153 0.051685
vt 0.445020 0.019854
vt 0.389887 0.433657
vt 0.334753 0.465488
vt 0.649923 0.592812
vt 0.705056 0.560981
vt 0.705056 0.624643
vt 0.760190 0.529150
vt 0.705056 0.497319
vt 0.760190 0.465488
vt 0.649923 0.083516
vt 0.705056 0.051685
vt 0.705056 0.115347
vt 0.649923 0.210840
vt 0.705056 0.179009
vt 0.705056 0.242671
vt 0.649923 0.338164
vt 0.705056 0.306333
vt 0.705056 0.369995
vt 0.815323 0.497319
vt 0.760190 0.656474
vt 0.760190 0.592812
vt 0.815323 0.624643
vt 0.760190 0.147178
vt 0.760190 0.083516
vt 0.815323 0.115347
vt 0.760190 0.274502
vt 0.760190 0.210840
vt 0.815323 0.242671
vt 0.760190 0.401826
vt 0.760190 0.338164
vt 0.815323 0.369995
vt 0.815323 0.560981
vt 0.815323 0.688305
vt 0.815323 0.179009
vt 0.815323 0.306333
vt 0.815323 0.433657
vt 0.870456 0.592812
vt 0.870456 0.529150
vt 0.925590 0.560981
vt 0.870456 0.720136
vt 0.870456 0.656474
vt 0.925590 0.688305
vt 0.870456 0.210840
vt 0.870456 0.147178
vt 0.925590 0.179009
vt 0.870456 0.338164
vt 0.870456 0.274502
vt 0.925590 0.306333
vt 0.870456 0.465488
vt 0.870456 0.401826
vt 0.925590 0.433657
vt 0.925590 0.369995
vt 0.980724 0.401826
vt 0.925590 0.242671
vt 0.980724 0.274502
vt 0.925590 0.115347
vt 0.980724 0.147178
vt 0.870456 0.083516
vt 0.925590 0.624643
vt 0.980724 0.656474
vt 0.925590 0.497319
vt 0.980724 0.529150
vt 0.815323 0.051685
vt 0.760190 0.019854
vt 0.705056 0.433657
vt 0.649923 0.465488
s 0
usemtl マテリアル.001
f 2/1/1 4/2/1 1/3/1
f 4/4/2 3/5/2 1/6/2
f 2/1/3 1/3/3 6/7/3
f 3/5/4 6/8/4 1/6/4
f 2/1/5 5/9/5 4/2/5
f 3/10/6 4/11/6 5/12/6
f 2/1/7 6/7/7 5/9/7
f 3/13/8 5/14/8 6/15/8
f 7/16/9 20/17/9 19/18/9
f 8/19/10 20/20/10 22/21/10
f 7/22/11 19/23/11 24/24/11
f 7/25/12 24/26/12 26/27/12
f 7/28/13 26/29/13 23/30/13
f 8/19/14 22/21/14 29/31/14
f 9/32/15 21/33/15 31/34/15
f 10/35/16 25/36/16 33/37/16
f 11/38/17 27/39/17 35/40/17
f 12/41/18 28/42/18 37/43/18
f 8/19/19 29/31/19 32/44/19
f 9/32/20 31/34/20 34/45/20
f 10/35/21 33/37/21 36/46/21
f 11/38/22 35/40/22 38/47/22
f 12/41/23 37/43/23 30/48/23
f 13/49/24 39/50/24 44/51/24
f 14/52/25 40/53/25 46/54/25
f 15/55/26 41/56/26 47/57/26
f 16/58/27 42/59/27 48/60/27
f 17/61/28 43/62/28 45/63/28
f 45/63/29 48/64/29 18/65/29
f 45/63/30 43/62/30 48/64/30
f 43/62/31 16/58/31 48/64/31
f 48/60/32 47/66/32 18/67/32
f 48/60/33 42/59/33 47/66/33
f 42/59/34 15/55/34 47/66/34
f 47/57/35 46/68/35 18/69/35
f 47/57/36 41/56/36 46/68/36
f 41/56/37 14/70/37 46/68/37
f 46/54/38 44/71/38 18/72/38
f 46/54/39 40/53/39 44/71/39
f 40/53/40 13/49/40 44/71/40
f 44/51/41 45/73/41 18/74/41
f 44/51/42 39/50/42 45/73/42
f 39/50/43 17/61/43 45/73/43
f 30/48/44 43/62/44 17/61/44
f 30/48/45 37/43/45 43/62/45
f 37/43/46 16/58/46 43/62/46
f 38/47/47 42/59/47 16/58/47
f 38/47/48 35/40/48 42/59/48
f 35/40/49 15/55/49 42/59/49
f 36/46/50 41/56/50 15/55/50
f 36/46/51 33/37/51 41/56/51
f 33/37/52 14/70/52 41/56/52
f 34/45/53 40/53/53 14/52/53
f 34/45/54 31/34/54 40/53/54
f 31/34/55 13/49/55 40/53/55
f 32/44/56 39/50/56 13/49/56
f 32/44/57 29/31/57 39/50/57
f 29/31/58 17/61/58 39/50/58
f 37/43/59 38/47/59 16/58/59
f 37/43/60 28/42/60 38/47/60
f 28/42/61 11/38/61 38/47/61
f 35/40/62 36/46/62 15/55/62
f 35/40/63 27/39/63 36/46/63
f 27/39/64 10/35/64 36/46/64
f 33/37/65 34/75/65 14/70/65
f 33/37/66 25/36/66 34/75/66
f 25/36/67 9/76/67 34/75/67
f 31/34/68 32/44/68 13/49/68
f 31/34/69 21/33/69 32/44/69
f 21/33/70 8/19/70 32/44/70
f 29/31/71 30/48/71 17/61/71
f 29/31/72 22/21/72 30/48/72
f 22/21/73 12/41/73 30/48/73
f 23/30/74 28/42/74 12/41/74
f 23/30/75 26/29/75 28/42/75
f 26/29/76 11/38/76 28/42/76
f 26/27/77 27/39/77 11/38/77
f 26/27/78 24/26/78 27/39/78
f 24/26/79 10/35/79 27/39/79
f 24/24/80 25/36/80 10/35/80
f 24/24/81 19/23/81 25/36/81
f 19/23/82 9/76/82 25/36/82
f 22/21/83 23/77/83 12/41/83
f 22/21/84 20/20/84 23/77/84
f 20/20/85 7/78/85 23/77/85
f 19/18/86 21/33/86 9/32/86
f 19/18/87 20/17/87 21/33/87
f 20/17/88 8/19/88 21/33/88
f 49/79/9 62/80/9 61/81/9
f 50/82/10 62/83/10 64/84/10
f 49/85/11 61/86/11 66/87/11
f 49/88/12 66/89/12 68/90/12
f 49/91/13 68/92/13 65/93/13
f 50/82/14 64/84/14 71/94/14
f 51/95/15 63/96/15 73/97/15
f 52/98/16 67/99/16 75/100/16
f 53/101/17 69/102/17 77/103/17
f 54/104/18 70/105/18 79/106/18
f 50/82/19 71/94/19 74/107/19
f 51/95/20 73/97/20 76/108/20
f 52/98/21 75/100/21 78/109/21
f 53/101/22 77/103/22 80/110/22
f 54/104/23 79/106/23 72/111/23
f 55/112/24 81/113/24 86/114/24
f 56/115/25 82/116/25 88/117/25
f 57/118/26 83/119/26 89/120/26
f 58/121/27 84/122/27 90/123/27
f 59/124/28 85/125/28 87/126/28
f 87/126/29 90/127/29 60/128/29
f 87/126/30 85/125/30 90/127/30
f 85/125/31 58/121/31 90/127/31
f 90/123/32 89/129/32 60/130/32
f 90/123/33 84/122/33 89/129/33
f 84/122/34 57/118/34 89/129/34
f 89/120/35 88/131/35 60/132/35
f 89/120/36 83/119/36 88/131/36
f 83/119/37 56/133/37 88/131/37
f 88/117/38 86/134/38 60/135/38
f 88/117/39 82/116/39 86/134/39
f 82/116/40 55/112/40 86/134/40
f 86/114/41 87/136/41 60/137/41
f 86/114/42 81/113/42 87/136/42
f 81/113/43 59/124/43 87/136/43
f 72/111/44 85/125/44 59/124/44
f 72/111/89 79/106/89 85/125/89
f 79/106/46 58/121/46 85/125/46
f 80/110/90 84/122/90 58/121/90
f 80/110/48 77/103/48 84/122/48
f 77/103/49 57/118/49 84/122/49
f 78/109/50 83/119/50 57/118/50
f 78/109/51 75/100/51 83/119/51
f 75/100/52 56/133/52 83/119/52
f 76/108/53 82/116/53 56/115/53
f 76/108/54 73/97/54 82/116/54
f 73/97/91 55/112/91 82/116/91
f 74/107/56 81/113/56 55/112/56
f 74/107/92 71/94/92 81/113/92
f 71/94/58 59/124/58 81/113/58
f 79/106/59 80/110/59 58/121/59
f 79/106/60 70/105/60 80/110/60
f 70/105/61 53/101/61 80/110/61
f 77/103/62 78/109/62 57/118/62
f 77/103/63 69/102/63 78/109/63
f 69/102/64 52/98/64 78/109/64
f 75/100/65 76/138/65 56/133/65
f 75/100/66 67/99/66 76/138/66
f 67/99/67 51/139/67 76/138/67
f 73/97/68 74/107/68 55/112/68
f 73/97/69 63/96/69 74/107/69
f 63/96/70 50/82/70 74/107/70
f 71/94/71 72/111/71 59/124/71
f 71/94/72 64/84/72 72/111/72
f 64/84/73 54/104/73 72/111/73
f 65/93/74 70/105/74 54/104/74
f 65/93/75 68/92/75 70/105/75
f 68/92/76 53/101/76 70/105/76
f 68/90/77 69/102/77 53/101/77
f 68/90/78 66/89/78 69/102/78
f 66/89/79 52/98/79 69/102/79
f 66/87/80 67/99/80 52/98/80
f 66/87/81 61/86/81 67/99/81
f 61/86/82 51/139/82 67/99/82
f 64/84/83 65/140/83 54/104/83
f 64/84/84 62/83/84 65/140/84
f 62/83/85 49/141/85 65/140/85
f 61/81/86 63/96/86 51/95/86
f 61/81/87 62/80/87 63/96/87
f 62/80/88 50/82/88 63/96/88
