# Blender 4.1.1
# www.blender.org
mtllib conifer.mtl
o conifer
v -0.007553 2.000000 0.303549
v -0.162363 0.000000 0.256588
v -0.146669 2.000000 0.263189
v -0.256588 2.000000 0.162363
v -0.263189 0.000000 0.146669
v -0.303549 0.000000 0.007553
v -0.303549 2.000000 -0.007553
v -0.256588 0.000000 -0.162363
v -0.263189 2.000000 -0.146669
v -0.162363 2.000000 -0.256588
v -0.146669 0.000000 -0.263189
v -0.007553 0.000000 -0.303549
v 0.007553 2.000000 -0.303549
v 0.162363 0.000000 -0.256588
v 0.146669 2.000000 -0.263189
v 0.256588 2.000000 -0.162363
v 0.263189 0.000000 -0.146669
v 0.303549 0.000000 -0.007553
v 0.303549 2.000000 0.007553
v 0.256588 0.000000 0.162363
v 0.263189 2.000000 0.146669
v 0.162363 2.000000 0.256588
v 0.146669 0.000000 0.263189
v 0.007553 0.000000 0.303549
v -0.320823 1.464441 1.057612
v -0.701133 1.464441 0.854333
v -0.974698 1.464448 0.520987
v -1.099886 1.464429 0.108329
v -1.057612 1.464441 -0.320823
v -0.854333 1.464441 -0.701133
v -0.520987 1.464448 -0.974698
v -0.108329 1.464427 -1.099887
v 0.320823 1.464441 -1.057612
v 0.701133 1.464441 -0.854333
v 0.974698 1.464448 -0.520987
v 1.099886 1.464429 -0.108329
v 1.057612 1.464441 0.320823
v 0.854333 1.464441 0.701133
v 0.520987 1.464448 0.974698
v 0.108329 1.464427 1.099887
v 0.000000 3.464411 0.000000
v -0.433440 2.290300 0.810909
v -0.880222 2.289618 0.267012
v -0.810909 2.290300 -0.433440
v -0.426262 2.288254 -0.797480
v -0.088633 2.288235 -0.899908
v 0.433440 2.290300 -0.810909
v 0.880222 2.289618 -0.267012
v 0.810909 2.290300 0.433440
v 0.426262 2.288254 0.797480
v 0.088633 2.288235 0.899908
v 0.000000 4.088221 0.000000
v -0.337135 3.013463 0.630735
v -0.684637 3.012915 0.207683
v -0.630735 3.013462 -0.337135
v -0.207705 3.012759 -0.684709
v 0.337135 3.013463 -0.630735
v 0.684637 3.012915 -0.207683
v 0.630735 3.013462 0.337135
v 0.207705 3.012759 0.684709
v 0.000000 4.511795 0.000000
vn -0.7369 -0.0029 0.6760
vn -0.6760 -0.0029 -0.7369
vn 0.7369 -0.0029 -0.6760
vn 0.6760 -0.0029 0.7369
vn -0.0862 0.4765 0.8749
vn -0.4144 0.4765 0.7754
vn -0.6796 0.4765 0.5577
vn -0.8413 0.4765 0.2552
vn -0.8749 0.4765 -0.0862
vn -0.7754 0.4765 -0.4144
vn -0.5577 0.4765 -0.6796
vn -0.2552 0.4765 -0.8413
vn 0.0862 0.4765 -0.8749
vn 0.4144 0.4765 -0.7754
vn 0.6796 0.4765 -0.5577
vn 0.8413 0.4765 -0.2552
vn 0.8749 0.4765 0.0862
vn 0.7754 0.4765 0.4144
vn 0.5577 0.4765 0.6796
vn 0.2552 0.4765 0.8413
vn -0.1495 0.4363 0.8873
vn -0.6989 0.4272 0.5736
vn -0.8998 0.4272 -0.0886
vn -0.6173 0.4363 -0.6547
vn -0.2604 0.4420 -0.8584
vn 0.1495 0.4363 -0.8873
vn 0.6989 0.4272 -0.5736
vn -0.2664 -0.0011 0.9639
vn 0.8998 0.4272 0.0886
vn 0.6173 0.4363 0.6547
vn 0.2604 0.4420 0.8584
vn -0.0897 0.4035 0.9106
vn -0.7073 0.4035 0.5805
vn -0.9106 0.4035 -0.0897
vn -0.5805 0.4035 -0.7073
vn 0.0897 0.4035 -0.9106
vn 0.7073 0.4035 -0.5805
vn 0.9106 0.4035 0.0897
vn 0.5805 0.4035 0.7073
vn -0.9604 0.0021 0.2786
vn -0.6760 0.0029 0.7369
vn -0.9639 -0.0011 -0.2664
vn -0.2786 0.0021 -0.9604
vn -0.7369 0.0029 -0.6760
vn 0.2664 -0.0011 -0.9639
vn 0.9604 0.0021 -0.2786
vn 0.6760 0.0029 -0.7369
vn 0.9639 -0.0011 0.2664
vn 0.7369 0.0029 0.6760
vn 0.2786 0.0021 0.9604
vn -0.0000 1.0000 -0.0000
vn -0.0000 -1.0000 -0.0000
vn -0.0018 -1.0000 0.0005
vn -0.2786 -0.0021 0.9604
vn -0.9639 0.0011 0.2664
vn -0.9604 -0.0021 -0.2786
vn -0.2664 0.0011 -0.9639
vn 0.2786 -0.0021 -0.9604
vn 0.9639 0.0011 -0.2664
vn 0.9604 -0.0021 0.2786
vn 0.2664 0.0011 0.9639
vn -0.0000 -1.0000 -0.0002
vn 0.0002 -1.0000 -0.0000
vn -0.0000 -1.0000 0.0002
vn -0.0002 -1.0000 -0.0000
vn -0.0048 -1.0000 0.0052
vn -0.0069 -1.0000 -0.0017
vn 0.0048 -1.0000 -0.0052
vn 0.0069 -1.0000 0.0017
vn 0.0018 -1.0000 -0.0005
vn -0.0010 -1.0000 -0.0032
vn 0.0025 -1.0000 -0.0008
vn 0.0010 -1.0000 0.0032
vn -0.0025 -1.0000 0.0008
vt 0.959135 0.506925
vt 0.961262 0.611557
vt 0.937598 0.611557
vt 0.946153 0.384832
vt 0.948280 0.489464
vt 0.924616 0.489464
vt 0.919882 0.262087
vt 0.923878 0.366685
vt 0.899373 0.366926
vt 0.885450 0.506925
vt 0.887522 0.611557
vt 0.876724 0.611557
vt 0.036359 0.305641
vt 0.196613 0.198566
vt 0.089535 0.358816
vt 0.159011 0.387594
vt 0.234211 0.387594
vt 0.303688 0.358819
vt 0.356863 0.305644
vt 0.385641 0.236168
vt 0.385641 0.160967
vt 0.356866 0.091490
vt 0.303690 0.038316
vt 0.234215 0.009537
vt 0.159014 0.009537
vt 0.089537 0.038313
vt 0.036362 0.091488
vt 0.007584 0.160964
vt 0.007584 0.236164
vt 0.683520 0.308930
vt 0.595852 0.177854
vt 0.744019 0.239148
vt 0.744019 0.116402
vt 0.657145 0.029687
vt 0.565017 0.023209
vt 0.508183 0.046779
vt 0.447684 0.116561
vt 0.447684 0.239307
vt 0.907119 0.611557
vt 0.934629 0.506925
vt 0.534558 0.326022
vt 0.626686 0.332500
vt 0.469203 0.921131
vt 0.353951 0.873315
vt 0.469203 0.825653
vt 0.401762 0.758076
vt 0.306289 0.758064
vt 0.238700 0.825500
vt 0.238700 0.920978
vt 0.306141 0.988555
vt 0.401614 0.988567
vt 0.874540 0.489464
vt 0.896562 0.384832
vt 0.894137 0.489464
vt 0.921647 0.384832
vt 0.965246 0.384832
vt 0.964219 0.489464
vt 0.880281 0.367113
vt 0.896219 0.262320
vt 0.950360 0.261788
vt 0.948961 0.366439
vt 0.969956 0.261596
vt 0.973054 0.366203
vt 0.980753 0.261490
vt 0.909544 0.506925
vt 0.965878 0.105142
vt 0.891574 0.104597
vt 0.966424 0.030838
vt 0.964470 0.143442
vt 0.889621 0.217201
vt 0.890166 0.142897
vt 0.159011 0.396903
vt 0.385641 0.548330
vt 0.234215 0.774960
vt 0.508183 0.664638
vt 0.447684 0.472110
vt 0.626686 0.378917
vt 0.486324 0.825653
vt 0.649238 0.758064
vt 0.716827 0.920978
vt 0.872468 0.384832
vt 0.880281 0.262476
vt 0.979670 0.083089
vt 0.944370 0.118389
vt 0.913628 0.118389
vt 0.878328 0.083089
vt 0.878328 0.052347
vt 0.892120 0.030293
vt 0.913628 0.017047
vt 0.944370 0.017047
vt 0.979670 0.052347
vt 0.977717 0.164951
vt 0.977717 0.195693
vt 0.963925 0.217746
vt 0.942417 0.230993
vt 0.911675 0.230993
vt 0.876375 0.195693
vt 0.876375 0.164951
vt 0.911675 0.129650
vt 0.942417 0.129650
vt 0.159014 0.774960
vt 0.007584 0.623534
vt 0.089537 0.746185
vt 0.036362 0.693009
vt 0.007584 0.548333
vt 0.036360 0.478856
vt 0.089535 0.425681
vt 0.234211 0.396903
vt 0.303688 0.425678
vt 0.356863 0.478854
vt 0.385641 0.623530
vt 0.356866 0.693007
vt 0.303690 0.746182
vt 0.447684 0.594856
vt 0.534558 0.385395
vt 0.683520 0.402488
vt 0.565017 0.688208
vt 0.744019 0.472269
vt 0.744019 0.595016
vt 0.657145 0.681731
vt 0.553913 0.988567
vt 0.486324 0.921131
vt 0.553765 0.758076
vt 0.716827 0.825500
vt 0.649386 0.988555
s 0
usemtl マテリアル.004
f 4/1/1 5/2/1 2/3/1
f 10/4/2 11/5/2 8/6/2
f 16/7/3 17/8/3 14/9/3
f 22/10/4 23/11/4 20/12/4
f 40/13/5 41/14/5 25/15/5
f 25/15/6 41/14/6 26/16/6
f 26/16/7 41/14/7 27/17/7
f 27/17/8 41/14/8 28/18/8
f 28/18/9 41/14/9 29/19/9
f 29/19/10 41/14/10 30/20/10
f 30/20/11 41/14/11 31/21/11
f 31/21/12 41/14/12 32/22/12
f 32/22/13 41/14/13 33/23/13
f 33/23/14 41/14/14 34/24/14
f 34/24/15 41/14/15 35/25/15
f 35/25/16 41/14/16 36/26/16
f 36/26/17 41/14/17 37/27/17
f 37/27/18 41/14/18 38/28/18
f 38/28/19 41/14/19 39/29/19
f 39/29/20 41/14/20 40/13/20
f 51/30/21 52/31/21 42/32/21
f 42/32/22 52/31/22 43/33/22
f 43/33/23 52/31/23 44/34/23
f 44/34/24 52/31/24 45/35/24
f 45/35/25 52/31/25 46/36/25
f 46/36/26 52/31/26 47/37/26
f 47/37/27 52/31/27 48/38/27
f 24/39/28 3/40/28 2/3/28
f 48/38/29 52/31/29 49/41/29
f 49/41/30 52/31/30 50/42/30
f 50/42/31 52/31/31 51/30/31
f 60/43/32 61/44/32 53/45/32
f 53/45/33 61/44/33 54/46/33
f 54/46/34 61/44/34 55/47/34
f 55/47/35 61/44/35 56/48/35
f 56/48/36 61/44/36 57/49/36
f 57/49/37 61/44/37 58/50/37
f 58/50/38 61/44/38 59/51/38
f 59/51/39 61/44/39 60/43/39
f 5/52/40 7/53/40 6/54/40
f 3/40/41 4/1/41 2/3/41
f 6/54/42 9/55/42 8/6/42
f 11/5/43 13/56/43 12/57/43
f 9/55/44 10/4/44 8/6/44
f 12/58/45 15/59/45 14/9/45
f 17/8/46 19/60/46 18/61/46
f 15/59/47 16/7/47 14/9/47
f 18/61/48 21/62/48 20/63/48
f 21/62/49 22/64/49 20/63/49
f 23/11/50 1/65/50 24/39/50
f 9/66/51 3/67/51 15/68/51
f 11/69/52 23/70/52 5/71/52
f 30/72/52 34/73/52 38/74/52
f 51/75/53 43/76/53 45/77/53
f 53/78/52 55/79/52 57/80/52
f 24/39/54 1/65/54 3/40/54
f 5/52/55 4/81/55 7/53/55
f 6/54/56 7/53/56 9/55/56
f 11/5/57 10/4/57 13/56/57
f 12/58/58 13/82/58 15/59/58
f 17/8/59 16/7/59 19/60/59
f 18/61/60 19/60/60 21/62/60
f 23/11/61 22/10/61 1/65/61
f 10/83/51 9/66/51 15/68/51
f 9/66/51 7/84/51 4/85/51
f 3/67/51 9/66/51 4/85/51
f 3/67/51 1/86/51 22/87/51
f 22/87/51 21/88/51 3/67/51
f 21/88/51 19/89/51 16/90/51
f 3/67/51 21/88/51 15/68/51
f 16/90/51 15/68/51 21/88/51
f 15/68/51 13/91/51 10/83/51
f 11/69/52 12/92/52 14/93/52
f 14/93/52 17/94/52 11/69/52
f 17/94/52 18/95/52 20/96/52
f 11/69/52 17/94/52 23/70/52
f 20/96/52 23/70/52 17/94/52
f 23/70/52 24/97/52 2/98/52
f 2/98/52 5/71/52 23/70/52
f 5/71/52 6/99/52 8/100/52
f 11/69/52 5/71/52 8/100/52
f 38/74/52 39/101/52 26/102/52
f 39/101/62 40/103/62 25/104/62
f 26/102/52 39/101/52 25/104/52
f 26/102/52 27/105/52 30/72/52
f 27/105/63 28/106/63 29/107/63
f 30/72/52 27/105/52 29/107/52
f 30/72/52 31/108/52 34/73/52
f 31/108/64 32/109/64 33/110/64
f 34/73/52 31/108/52 33/110/52
f 34/73/52 35/111/52 38/74/52
f 35/111/65 36/112/65 37/113/65
f 38/74/52 35/111/52 37/113/52
f 38/74/52 26/102/52 30/72/52
f 51/75/66 42/114/66 43/76/66
f 43/76/67 44/115/67 45/77/67
f 45/77/52 46/116/52 50/117/52
f 46/116/68 47/118/68 48/119/68
f 50/117/69 48/119/69 49/120/69
f 46/116/70 48/119/70 50/117/70
f 50/117/52 51/75/52 45/77/52
f 59/121/71 60/122/71 53/78/71
f 53/78/72 54/123/72 55/79/72
f 55/79/73 56/124/73 57/80/73
f 57/80/74 58/125/74 59/121/74
f 59/121/52 53/78/52 57/80/52
