# Blender 4.1.1
# www.blender.org
mtllib crystal4.mtl
o 立方体
v 1.000000 0.000000 0.000000
v -0.000000 -1.000000 0.000000
v 0.000000 1.000000 -0.000000
v 0.000000 -0.000000 -1.000000
v -1.000000 0.000000 -0.000000
v -0.000000 0.000000 1.000000
v -1.096445 -0.201135 0.797530
v -1.063954 -0.171266 0.697531
v -1.181509 -0.171266 0.735728
v -1.181509 -0.171266 0.859332
v -0.991299 -0.171265 0.797530
v -1.063954 -0.171266 0.897529
v -1.149019 -0.106282 0.959332
v -0.958807 -0.106282 0.897529
v -1.041167 -0.090579 0.967660
v -0.978888 -0.001135 0.959333
v -1.096445 -0.001135 0.997530
v -1.214002 -0.001135 0.959333
v -1.043871 0.104013 0.959332
v -1.151723 0.088309 0.967660
v -1.234083 0.104012 0.897529
v -1.128936 0.168996 0.897529
v -1.201591 0.168995 0.797530
v -1.011380 0.168996 0.859332
v -1.096445 0.198865 0.797530
v -1.128936 0.168996 0.697531
v -1.011380 0.168996 0.735728
v -0.926315 0.104012 0.797530
v -0.951723 0.088309 0.692385
v -1.043871 0.104013 0.635728
v -1.151723 0.088309 0.627400
v -1.096445 -0.001135 0.597530
v -0.978888 -0.001135 0.635727
v -1.041167 -0.090579 0.627400
v -0.958807 -0.106282 0.697531
v -0.906233 -0.001135 0.735727
v -0.906233 -0.001135 0.859333
v -0.917560 -0.090578 0.797530
v -0.951723 0.088309 0.902675
v -1.149019 -0.106282 0.635728
v -1.214002 -0.001135 0.635727
v -1.241166 -0.090579 0.692385
v -1.266574 -0.106282 0.797530
v -1.286656 -0.001135 0.735727
v -1.275330 0.088308 0.797530
v -1.286656 -0.001135 0.859333
v -1.234083 0.104012 0.697531
v -1.241166 -0.090579 0.902675
v 1.102751 -0.201135 0.797530
v 1.135242 -0.171266 0.697531
v 1.017687 -0.171266 0.735728
v 1.017687 -0.171266 0.859332
v 1.207897 -0.171265 0.797530
v 1.135242 -0.171266 0.897529
v 1.240389 -0.106282 0.897529
v 1.158029 -0.090579 0.967660
v 1.050177 -0.106282 0.959332
v 0.985194 -0.001135 0.959333
v 1.102751 -0.001135 0.997530
v 0.958030 -0.090579 0.902675
v 0.912540 -0.001135 0.859333
v 0.932622 -0.106282 0.797530
v 0.958030 -0.090579 0.692385
v 0.912540 -0.001135 0.735727
v 0.965113 0.104012 0.697531
v 0.923866 0.088308 0.797530
v 0.985194 -0.001135 0.635727
v 1.102751 -0.001135 0.597530
v 1.050177 -0.106282 0.635728
v 1.047473 0.088309 0.627400
v 1.155325 0.104013 0.635728
v 1.070260 0.168996 0.697531
v 0.997605 0.168995 0.797530
v 1.187816 0.168996 0.735728
v 1.102751 0.198865 0.797530
v 1.070260 0.168996 0.897529
v 1.187816 0.168996 0.859332
v 1.247473 0.088309 0.902675
v 1.272881 0.104012 0.797530
v 1.155325 0.104013 0.959332
v 1.220308 -0.001135 0.959333
v 1.047473 0.088309 0.967660
v 0.965113 0.104012 0.897529
v 1.292963 -0.001135 0.859333
v 1.292963 -0.001135 0.735727
v 1.281636 -0.090578 0.797530
v 1.240389 -0.106282 0.697531
v 1.220308 -0.001135 0.635727
v 1.158029 -0.090579 0.627400
v 1.247473 0.088309 0.692385
v 1.750419 -0.201135 0.000000
v 1.782910 -0.171266 -0.099999
v 1.665354 -0.171266 -0.061802
v 1.665354 -0.171266 0.061802
v 1.855564 -0.171265 0.000000
v 1.782910 -0.171266 0.099999
v 1.888057 -0.106282 0.099999
v 1.805696 -0.090579 0.170130
v 1.697845 -0.106282 0.161802
v 1.632861 -0.001135 0.161803
v 1.750419 -0.001135 0.200000
v 1.605698 -0.090579 0.105145
v 1.560207 -0.001135 0.061803
v 1.580289 -0.106282 0.000000
v 1.605698 -0.090579 -0.105145
v 1.560207 -0.001135 -0.061803
v 1.612780 0.104012 -0.099999
v 1.571533 0.088308 0.000000
v 1.632861 -0.001135 -0.161803
v 1.750419 -0.001135 -0.200000
v 1.697845 -0.106282 -0.161802
v 1.695140 0.088309 -0.170130
v 1.802992 0.104013 -0.161802
v 1.717927 0.168996 -0.099999
v 1.645272 0.168995 0.000000
v 1.835484 0.168996 -0.061802
v 1.750419 0.198865 0.000000
v 1.717927 0.168996 0.099999
v 1.835484 0.168996 0.061802
v 1.895141 0.088309 0.105145
v 1.920548 0.104012 0.000000
v 1.802992 0.104013 0.161802
v 1.867975 -0.001135 0.161803
v 1.695140 0.088309 0.170130
v 1.612780 0.104012 0.099999
v 1.940631 -0.001135 0.061803
v 1.940631 -0.001135 -0.061803
v 1.929304 -0.090578 0.000000
v 1.888057 -0.106282 -0.099999
v 1.867975 -0.001135 -0.161803
v 1.805696 -0.090579 -0.170130
v 1.895141 0.088309 -0.105145
v -1.749581 -0.201135 -0.000000
v -1.717090 -0.171266 -0.099999
v -1.834646 -0.171266 -0.061802
v -1.834646 -0.171266 0.061802
v -1.644436 -0.171265 -0.000000
v -1.717090 -0.171266 0.099999
v -1.802155 -0.106282 0.161802
v -1.611943 -0.106282 0.099999
v -1.694304 -0.090579 0.170130
v -1.632025 -0.001135 0.161803
v -1.749581 -0.001135 0.200000
v -1.867139 -0.001135 0.161803
v -1.697008 0.104013 0.161802
v -1.804860 0.088309 0.170130
v -1.887220 0.104012 0.099999
v -1.782073 0.168996 0.099999
v -1.854728 0.168995 -0.000000
v -1.664516 0.168996 0.061802
v -1.749581 0.198865 -0.000000
v -1.782073 0.168996 -0.099999
v -1.664516 0.168996 -0.061802
v -1.579452 0.104012 -0.000000
v -1.604859 0.088309 -0.105145
v -1.697008 0.104013 -0.161802
v -1.804860 0.088309 -0.170130
v -1.749581 -0.001135 -0.200000
v -1.632025 -0.001135 -0.161803
v -1.694304 -0.090579 -0.170130
v -1.611943 -0.106282 -0.099999
v -1.559369 -0.001135 -0.061803
v -1.559369 -0.001135 0.061803
v -1.570696 -0.090578 -0.000000
v -1.604859 0.088309 0.105145
v -1.802155 -0.106282 -0.161802
v -1.867139 -0.001135 -0.161803
v -1.894302 -0.090579 -0.105145
v -1.919711 -0.106282 -0.000000
v -1.939793 -0.001135 -0.061803
v -1.928467 0.088308 -0.000000
v -1.939793 -0.001135 0.061803
v -1.887220 0.104012 -0.099999
v -1.894302 -0.090579 0.105145
vn 0.5774 -0.5774 -0.5774
vn 0.5774 0.5774 -0.5774
vn 0.5774 -0.5774 0.5774
vn 0.5774 0.5774 0.5774
vn -0.5774 -0.5774 -0.5774
vn -0.5774 0.5774 -0.5774
vn -0.5774 -0.5774 0.5774
vn -0.5774 0.5774 0.5774
vn 0.2680 -0.9435 -0.1947
vn -0.1024 -0.9435 -0.3151
vn -0.3313 -0.9435 -0.0000
vn -0.1024 -0.9435 0.3151
vn 0.2680 -0.9435 0.1947
vn 0.4911 -0.7947 0.3568
vn 0.0385 -0.6617 0.7488
vn -0.1876 -0.7947 0.5773
vn 0.4090 -0.6617 0.6284
vn 0.5746 -0.3304 0.7488
vn -0.0248 -0.3304 0.9435
vn 0.3066 -0.1256 0.9435
vn -0.3035 -0.1876 0.9342
vn -0.3066 0.1256 0.9435
vn 0.3035 0.1876 0.9342
vn 0.0247 0.3304 0.9435
vn -0.5746 0.3304 0.7488
vn -0.0385 0.6617 0.7488
vn -0.4089 0.6617 0.6284
vn -0.4911 0.7947 0.3568
vn -0.2680 0.9435 0.1947
vn 0.1876 0.7947 0.5773
vn 0.1024 0.9435 0.3151
vn -0.2680 0.9435 -0.1947
vn 0.1024 0.9435 -0.3151
vn 0.3313 0.9435 -0.0000
vn 0.7002 0.6617 -0.2680
vn 0.6071 0.7947 -0.0000
vn 0.4713 0.6617 -0.5831
vn 0.1876 0.7947 -0.5773
vn 0.0247 0.3304 -0.9435
vn -0.0385 0.6617 -0.7488
vn 0.5346 0.3304 -0.7779
vn 0.3035 0.1876 -0.9342
vn 0.5746 -0.3304 -0.7488
vn 0.3066 -0.1256 -0.9435
vn 0.8026 0.1256 -0.5831
vn 0.7947 -0.1876 -0.5774
vn 0.8897 -0.3304 -0.3151
vn 0.9822 0.1876 -0.0000
vn 0.9921 -0.1256 -0.0000
vn 0.9050 0.3304 -0.2680
vn 0.7240 -0.6617 -0.1947
vn 0.7240 -0.6617 0.1947
vn 0.8897 -0.3304 0.3151
vn 0.8026 0.1256 0.5831
vn 0.9050 0.3304 0.2680
vn 0.7947 -0.1876 0.5774
vn 0.7002 0.6617 0.2680
vn 0.5346 0.3304 0.7779
vn 0.4713 0.6617 0.5831
vn 0.4089 -0.6617 -0.6284
vn 0.4911 -0.7947 -0.3568
vn 0.0385 -0.6617 -0.7488
vn -0.0248 -0.3304 -0.9435
vn -0.3035 -0.1876 -0.9342
vn -0.5346 -0.3304 -0.7779
vn -0.1876 -0.7947 -0.5773
vn -0.4713 -0.6617 -0.5831
vn -0.7002 -0.6617 -0.2680
vn -0.9050 -0.3304 -0.2680
vn -0.8026 -0.1256 -0.5831
vn -0.9921 0.1256 -0.0000
vn -0.8897 0.3304 -0.3151
vn -0.7947 0.1876 -0.5773
vn -0.9822 -0.1876 -0.0000
vn -0.7240 0.6617 -0.1947
vn -0.4911 0.7947 -0.3568
vn -0.5746 0.3304 -0.7488
vn -0.4090 0.6617 -0.6284
vn -0.8897 0.3304 0.3151
vn -0.9050 -0.3304 0.2680
vn -0.7947 0.1876 0.5773
vn -0.8026 -0.1256 0.5831
vn -0.7002 -0.6617 0.2680
vn -0.4713 -0.6617 0.5831
vn -0.5346 -0.3304 0.7779
vn -0.7240 0.6617 0.1947
vn -0.6071 -0.7947 -0.0000
vn -0.3066 0.1256 -0.9435
vn 0.4090 -0.6617 -0.6284
vn 0.4089 -0.6617 0.6284
vn -0.4090 0.6617 0.6284
vt 0.046889 0.867329
vt 0.093601 0.914041
vt 0.000177 0.914041
vt 0.093955 0.914040
vt 0.093955 0.820617
vt 0.140667 0.867329
vt 0.000177 0.820617
vt 0.187379 0.820617
vt 0.093601 0.820617
vt 0.187733 0.820617
vt 0.234445 0.867330
vt 0.187733 0.914041
vt 0.250178 0.886677
vt 0.316238 0.820617
vt 0.316238 0.886677
vt 0.500178 0.048221
vt 0.541785 0.024199
vt 0.541785 0.072243
vt 0.500178 0.432572
vt 0.541785 0.408550
vt 0.541785 0.456594
vt 0.541785 0.360506
vt 0.500178 0.336484
vt 0.541785 0.312462
vt 0.500178 0.240397
vt 0.541785 0.216375
vt 0.541785 0.264419
vt 0.500178 0.144309
vt 0.541785 0.120287
vt 0.541785 0.168331
vt 0.583393 0.144309
vt 0.583393 0.192353
vt 0.583393 0.240397
vt 0.625001 0.168331
vt 0.625001 0.216375
vt 0.625001 0.264419
vt 0.666608 0.240397
vt 0.666608 0.192353
vt 0.666608 0.288440
vt 0.708216 0.216375
vt 0.708216 0.264419
vt 0.708216 0.312462
vt 0.749823 0.288440
vt 0.708216 0.168331
vt 0.749823 0.192353
vt 0.708216 0.408550
vt 0.708216 0.360506
vt 0.749823 0.384528
vt 0.708216 0.504638
vt 0.708216 0.456594
vt 0.749823 0.480616
vt 0.708216 0.120287
vt 0.708216 0.072243
vt 0.749823 0.096265
vt 0.666608 0.096265
vt 0.666608 0.048221
vt 0.666608 0.528660
vt 0.666608 0.480616
vt 0.625001 0.456594
vt 0.666608 0.432572
vt 0.625001 0.504638
vt 0.583393 0.048221
vt 0.583393 0.000177
vt 0.625001 0.024199
vt 0.583393 0.480616
vt 0.625001 0.072243
vt 0.583393 0.096265
vt 0.625001 0.120287
vt 0.666608 0.144309
vt 0.583393 0.432572
vt 0.625001 0.408550
vt 0.583393 0.384528
vt 0.583393 0.336484
vt 0.625001 0.360506
vt 0.625001 0.312462
vt 0.666608 0.336484
vt 0.666608 0.384528
vt 0.583393 0.288440
vt 0.000177 0.048221
vt 0.041785 0.024199
vt 0.041785 0.072243
vt 0.000177 0.432572
vt 0.041785 0.408550
vt 0.041785 0.456594
vt 0.041785 0.360506
vt 0.000177 0.336484
vt 0.041785 0.312462
vt 0.000177 0.240397
vt 0.041785 0.216375
vt 0.041785 0.264419
vt 0.000177 0.144309
vt 0.041785 0.120287
vt 0.041785 0.168331
vt 0.083393 0.144309
vt 0.083393 0.192353
vt 0.083393 0.240397
vt 0.125000 0.216375
vt 0.125000 0.264419
vt 0.083393 0.288440
vt 0.083393 0.336484
vt 0.125000 0.312462
vt 0.083393 0.384528
vt 0.125000 0.360506
vt 0.125001 0.408550
vt 0.166608 0.336484
vt 0.166608 0.384528
vt 0.125001 0.456594
vt 0.083393 0.432572
vt 0.166608 0.432572
vt 0.166608 0.480616
vt 0.208215 0.408550
vt 0.208215 0.456594
vt 0.208215 0.360506
vt 0.208215 0.504638
vt 0.249823 0.384528
vt 0.249823 0.480616
vt 0.208215 0.120287
vt 0.208215 0.072243
vt 0.249823 0.096265
vt 0.208215 0.216375
vt 0.208215 0.168331
vt 0.249823 0.192353
vt 0.208215 0.312462
vt 0.208215 0.264419
vt 0.249823 0.288440
vt 0.166608 0.192353
vt 0.166608 0.144309
vt 0.166608 0.096265
vt 0.125000 0.168331
vt 0.166608 0.240397
vt 0.166608 0.288440
vt 0.125000 0.120287
vt 0.125000 0.072243
vt 0.083393 0.096265
vt 0.083393 0.048221
vt 0.083393 0.000177
vt 0.125000 0.024199
vt 0.083393 0.480616
vt 0.125001 0.504638
vt 0.166608 0.048221
vt 0.166608 0.528660
vt 0.250178 0.048221
vt 0.291786 0.024199
vt 0.291786 0.072243
vt 0.250178 0.432572
vt 0.291786 0.408550
vt 0.291786 0.456594
vt 0.291786 0.360506
vt 0.250178 0.336484
vt 0.291786 0.312462
vt 0.250178 0.240397
vt 0.291786 0.216375
vt 0.291786 0.264419
vt 0.250178 0.144309
vt 0.291786 0.120287
vt 0.291786 0.168331
vt 0.333393 0.144309
vt 0.333393 0.192353
vt 0.333393 0.240397
vt 0.375000 0.216375
vt 0.375000 0.264419
vt 0.333393 0.288440
vt 0.333393 0.336484
vt 0.375000 0.312462
vt 0.333393 0.384528
vt 0.375000 0.360506
vt 0.375001 0.408550
vt 0.416608 0.336484
vt 0.416608 0.384528
vt 0.375001 0.456594
vt 0.333393 0.432572
vt 0.416608 0.432572
vt 0.416608 0.480616
vt 0.458216 0.408550
vt 0.458216 0.456594
vt 0.458216 0.360506
vt 0.458216 0.504638
vt 0.499824 0.384528
vt 0.499824 0.480616
vt 0.458216 0.120287
vt 0.458216 0.072243
vt 0.499824 0.096265
vt 0.458216 0.216375
vt 0.458216 0.168331
vt 0.499824 0.192353
vt 0.458216 0.312462
vt 0.458216 0.264419
vt 0.499824 0.288440
vt 0.416608 0.192353
vt 0.416608 0.144309
vt 0.416608 0.096265
vt 0.375000 0.168331
vt 0.416608 0.240397
vt 0.416608 0.288440
vt 0.375000 0.120287
vt 0.375000 0.072243
vt 0.333393 0.096265
vt 0.333393 0.048221
vt 0.333393 0.000177
vt 0.375000 0.024199
vt 0.333393 0.480616
vt 0.375001 0.504638
vt 0.416608 0.048221
vt 0.416608 0.528660
vt 0.750178 0.048221
vt 0.791785 0.024199
vt 0.791785 0.072243
vt 0.750178 0.432572
vt 0.791785 0.408550
vt 0.791785 0.456594
vt 0.791785 0.360506
vt 0.750178 0.336484
vt 0.791785 0.312462
vt 0.750178 0.240397
vt 0.791785 0.216375
vt 0.791785 0.264419
vt 0.750178 0.144309
vt 0.791785 0.120287
vt 0.791785 0.168331
vt 0.833393 0.144309
vt 0.833393 0.192353
vt 0.833393 0.240397
vt 0.875000 0.168331
vt 0.875000 0.216375
vt 0.875000 0.264419
vt 0.916608 0.240397
vt 0.916608 0.192353
vt 0.916608 0.288440
vt 0.958216 0.216375
vt 0.958216 0.264419
vt 0.958216 0.312462
vt 0.999823 0.288440
vt 0.958216 0.168331
vt 0.999823 0.192353
vt 0.958216 0.408550
vt 0.958216 0.360506
vt 0.999823 0.384528
vt 0.958216 0.504638
vt 0.958216 0.456594
vt 0.999823 0.480616
vt 0.958216 0.120287
vt 0.958216 0.072243
vt 0.999823 0.096265
vt 0.916608 0.096265
vt 0.916608 0.048221
vt 0.916608 0.528660
vt 0.916608 0.480616
vt 0.875000 0.456594
vt 0.916608 0.432572
vt 0.875000 0.504638
vt 0.833393 0.048221
vt 0.833393 0.000177
vt 0.875000 0.024199
vt 0.833393 0.480616
vt 0.875000 0.072243
vt 0.833393 0.096265
vt 0.875000 0.120287
vt 0.916608 0.144309
vt 0.833393 0.432572
vt 0.875000 0.408550
vt 0.833393 0.384528
vt 0.833393 0.336484
vt 0.875000 0.360506
vt 0.875000 0.312462
vt 0.916608 0.336484
vt 0.916608 0.384528
vt 0.833393 0.288440
s 0
usemtl マテリアル.001
f 2/1/1 4/2/1 1/3/1
f 4/4/2 3/5/2 1/6/2
f 2/1/3 1/3/3 6/7/3
f 3/5/4 6/8/4 1/6/4
f 2/1/5 5/9/5 4/2/5
f 3/10/6 4/11/6 5/12/6
f 2/1/7 6/7/7 5/9/7
f 3/13/8 5/14/8 6/15/8
f 7/16/9 8/17/9 11/18/9
f 7/19/10 9/20/10 8/21/10
f 9/22/11 7/23/11 10/24/11
f 7/25/12 12/26/12 10/27/12
f 7/28/13 11/29/13 12/30/13
f 12/30/14 11/29/14 14/31/14
f 12/26/15 15/32/15 13/33/15
f 10/27/16 12/26/16 13/33/16
f 12/30/17 14/31/17 15/32/17
f 15/32/18 14/31/18 16/34/18
f 13/33/19 15/32/19 17/35/19
f 15/32/20 16/34/20 17/35/20
f 18/36/21 13/33/21 17/35/21
f 18/36/22 17/35/22 20/37/22
f 17/35/23 16/34/23 19/38/23
f 17/35/24 19/38/24 20/37/24
f 18/36/25 20/37/25 21/39/25
f 20/37/26 19/38/26 22/40/26
f 21/39/27 20/37/27 22/41/27
f 23/42/28 21/39/28 22/41/28
f 23/42/29 22/41/29 25/43/29
f 22/40/30 19/38/30 24/44/30
f 22/40/31 24/44/31 25/45/31
f 26/46/32 23/47/32 25/48/32
f 27/49/33 26/50/33 25/51/33
f 24/52/34 27/53/34 25/54/34
f 28/55/35 29/56/35 27/53/35
f 24/52/36 28/55/36 27/53/36
f 29/57/37 30/58/37 27/49/37
f 27/49/38 30/58/38 26/50/38
f 32/59/39 31/60/39 30/58/39
f 30/58/40 31/60/40 26/50/40
f 33/61/41 30/58/41 29/57/41
f 33/61/42 32/59/42 30/58/42
f 35/62/43 34/63/43 33/64/43
f 34/65/44 32/59/44 33/61/44
f 36/66/45 33/64/45 29/56/45
f 36/66/46 35/62/46 33/64/46
f 38/67/47 35/62/47 36/66/47
f 37/68/48 36/66/48 28/55/48
f 38/67/49 36/66/49 37/68/49
f 36/66/50 29/56/50 28/55/50
f 11/18/51 35/62/51 38/67/51
f 11/29/52 38/67/52 14/31/52
f 14/31/53 38/67/53 37/68/53
f 16/34/54 37/68/54 39/69/54
f 37/68/55 28/55/55 39/69/55
f 16/34/56 14/31/56 37/68/56
f 39/69/57 28/55/57 24/52/57
f 16/34/58 39/69/58 19/38/58
f 19/38/59 39/69/59 24/44/59
f 8/17/60 34/63/60 35/62/60
f 11/18/61 8/17/61 35/62/61
f 8/21/62 40/70/62 34/65/62
f 34/65/63 40/70/63 32/59/63
f 32/59/64 40/70/64 41/71/64
f 40/70/65 42/72/65 41/71/65
f 8/21/66 9/20/66 40/70/66
f 9/20/67 42/72/67 40/70/67
f 42/72/68 9/22/68 43/73/68
f 42/72/69 43/73/69 44/74/69
f 42/72/70 44/74/70 41/71/70
f 44/74/71 46/75/71 45/76/71
f 44/74/72 45/76/72 47/77/72
f 41/71/73 44/74/73 47/77/73
f 44/74/74 43/73/74 46/75/74
f 47/77/75 45/76/75 23/47/75
f 26/46/76 47/77/76 23/47/76
f 41/71/77 47/77/77 31/60/77
f 31/60/78 47/77/78 26/46/78
f 46/75/79 21/39/79 45/76/79
f 43/73/80 48/78/80 46/75/80
f 46/75/81 18/36/81 21/39/81
f 48/78/82 18/36/82 46/75/82
f 43/73/83 10/24/83 48/78/83
f 10/27/84 13/33/84 48/78/84
f 48/78/85 13/33/85 18/36/85
f 45/76/86 21/39/86 23/42/86
f 43/73/87 9/22/87 10/24/87
f 32/59/88 41/71/88 31/60/88
f 49/79/9 50/80/9 53/81/9
f 49/82/10 51/83/10 50/84/10
f 51/85/11 49/86/11 52/87/11
f 49/88/12 54/89/12 52/90/12
f 49/91/13 53/92/13 54/93/13
f 54/93/14 53/92/14 55/94/14
f 54/93/17 55/94/17 56/95/17
f 54/89/15 56/95/15 57/96/15
f 52/90/16 54/89/16 57/96/16
f 57/96/19 56/95/19 59/97/19
f 58/98/21 57/96/21 59/97/21
f 60/99/85 57/96/85 58/98/85
f 52/90/84 57/96/84 60/99/84
f 62/100/80 60/99/80 61/101/80
f 60/99/82 58/98/82 61/101/82
f 62/100/83 52/87/83 60/99/83
f 62/100/87 51/85/87 52/87/87
f 63/102/68 51/85/68 62/100/68
f 63/102/69 62/100/69 64/103/69
f 64/103/74 62/100/74 61/101/74
f 63/102/70 64/103/70 67/104/70
f 64/103/71 61/101/71 66/105/71
f 64/103/72 66/105/72 65/106/72
f 67/104/73 64/103/73 65/106/73
f 68/107/64 69/108/64 67/104/64
f 68/107/88 67/104/88 70/109/88
f 69/108/65 63/102/65 67/104/65
f 67/104/77 65/106/77 70/109/77
f 68/107/39 70/109/39 71/110/39
f 70/109/78 65/106/78 72/111/78
f 71/110/40 70/109/40 72/112/40
f 72/111/76 65/106/76 73/113/76
f 74/114/38 71/110/38 72/112/38
f 72/111/32 73/113/32 75/115/32
f 74/114/33 72/112/33 75/116/33
f 77/117/34 74/118/34 75/119/34
f 76/120/31 77/121/31 75/122/31
f 73/123/29 76/124/29 75/125/29
f 80/126/59 78/127/59 77/121/59
f 78/127/57 79/128/57 77/117/57
f 76/120/30 80/126/30 77/121/30
f 77/117/36 79/128/36 74/118/36
f 81/129/58 78/127/58 80/126/58
f 59/97/23 81/129/23 80/126/23
f 59/97/24 80/126/24 82/130/24
f 82/130/26 80/126/26 76/120/26
f 58/98/22 59/97/22 82/130/22
f 58/98/25 82/130/25 83/131/25
f 83/131/27 82/130/27 76/124/27
f 73/123/28 83/131/28 76/124/28
f 66/105/86 83/131/86 73/123/86
f 61/101/79 83/131/79 66/105/79
f 61/101/81 58/98/81 83/131/81
f 56/95/20 81/129/20 59/97/20
f 56/95/18 55/94/18 81/129/18
f 81/129/54 84/132/54 78/127/54
f 81/129/56 55/94/56 84/132/56
f 84/132/55 79/128/55 78/127/55
f 84/132/48 85/133/48 79/128/48
f 86/134/49 85/133/49 84/132/49
f 55/94/53 86/134/53 84/132/53
f 53/81/51 87/135/51 86/134/51
f 53/92/52 86/134/52 55/94/52
f 86/134/47 87/135/47 85/133/47
f 50/80/89 89/136/89 87/135/89
f 53/81/61 50/80/61 87/135/61
f 87/135/43 89/136/43 88/137/43
f 85/133/46 87/135/46 88/137/46
f 89/138/44 68/107/44 88/139/44
f 50/84/62 69/108/62 89/138/62
f 89/138/63 69/108/63 68/107/63
f 88/139/42 68/107/42 71/110/42
f 85/133/45 88/137/45 90/140/45
f 88/139/41 71/110/41 90/141/41
f 85/133/50 90/140/50 79/128/50
f 90/141/37 71/110/37 74/114/37
f 79/128/35 90/140/35 74/118/35
f 65/106/75 66/105/75 73/113/75
f 50/84/66 51/83/66 69/108/66
f 51/83/67 63/102/67 69/108/67
f 91/142/9 92/143/9 95/144/9
f 91/145/10 93/146/10 92/147/10
f 93/148/11 91/149/11 94/150/11
f 91/151/12 96/152/12 94/153/12
f 91/154/13 95/155/13 96/156/13
f 96/156/14 95/155/14 97/157/14
f 96/156/90 97/157/90 98/158/90
f 96/152/15 98/158/15 99/159/15
f 94/153/16 96/152/16 99/159/16
f 99/159/19 98/158/19 101/160/19
f 100/161/21 99/159/21 101/160/21
f 102/162/85 99/159/85 100/161/85
f 94/153/84 99/159/84 102/162/84
f 104/163/80 102/162/80 103/164/80
f 102/162/82 100/161/82 103/164/82
f 104/163/83 94/150/83 102/162/83
f 104/163/87 93/148/87 94/150/87
f 105/165/68 93/148/68 104/163/68
f 105/165/69 104/163/69 106/166/69
f 106/166/74 104/163/74 103/164/74
f 105/165/70 106/166/70 109/167/70
f 106/166/71 103/164/71 108/168/71
f 106/166/72 108/168/72 107/169/72
f 109/167/73 106/166/73 107/169/73
f 110/170/64 111/171/64 109/167/64
f 110/170/88 109/167/88 112/172/88
f 111/171/65 105/165/65 109/167/65
f 109/167/77 107/169/77 112/172/77
f 110/170/39 112/172/39 113/173/39
f 112/172/78 107/169/78 114/174/78
f 113/173/40 112/172/40 114/175/40
f 114/174/76 107/169/76 115/176/76
f 116/177/38 113/173/38 114/175/38
f 114/174/32 115/176/32 117/178/32
f 116/177/33 114/175/33 117/179/33
f 119/180/34 116/181/34 117/182/34
f 118/183/31 119/184/31 117/185/31
f 115/186/29 118/187/29 117/188/29
f 122/189/59 120/190/59 119/184/59
f 120/190/57 121/191/57 119/180/57
f 118/183/30 122/189/30 119/184/30
f 119/180/36 121/191/36 116/181/36
f 123/192/58 120/190/58 122/189/58
f 101/160/23 123/192/23 122/189/23
f 101/160/24 122/189/24 124/193/24
f 124/193/26 122/189/26 118/183/26
f 100/161/22 101/160/22 124/193/22
f 100/161/25 124/193/25 125/194/25
f 125/194/91 124/193/91 118/187/91
f 115/186/28 125/194/28 118/187/28
f 108/168/86 125/194/86 115/186/86
f 103/164/79 125/194/79 108/168/79
f 103/164/81 100/161/81 125/194/81
f 98/158/20 123/192/20 101/160/20
f 98/158/18 97/157/18 123/192/18
f 123/192/54 126/195/54 120/190/54
f 123/192/56 97/157/56 126/195/56
f 126/195/55 121/191/55 120/190/55
f 126/195/48 127/196/48 121/191/48
f 128/197/49 127/196/49 126/195/49
f 97/157/53 128/197/53 126/195/53
f 95/144/51 129/198/51 128/197/51
f 95/155/52 128/197/52 97/157/52
f 128/197/47 129/198/47 127/196/47
f 92/143/60 131/199/60 129/198/60
f 95/144/61 92/143/61 129/198/61
f 129/198/43 131/199/43 130/200/43
f 127/196/46 129/198/46 130/200/46
f 131/201/44 110/170/44 130/202/44
f 92/147/62 111/171/62 131/201/62
f 131/201/63 111/171/63 110/170/63
f 130/202/42 110/170/42 113/173/42
f 127/196/45 130/200/45 132/203/45
f 130/202/41 113/173/41 132/204/41
f 127/196/50 132/203/50 121/191/50
f 132/204/37 113/173/37 116/177/37
f 121/191/35 132/203/35 116/181/35
f 107/169/75 108/168/75 115/176/75
f 92/147/66 93/146/66 111/171/66
f 93/146/67 105/165/67 111/171/67
f 133/205/9 134/206/9 137/207/9
f 133/208/10 135/209/10 134/210/10
f 135/211/11 133/212/11 136/213/11
f 133/214/12 138/215/12 136/216/12
f 133/217/13 137/218/13 138/219/13
f 138/219/14 137/218/14 140/220/14
f 138/215/15 141/221/15 139/222/15
f 136/216/16 138/215/16 139/222/16
f 138/219/90 140/220/90 141/221/90
f 141/221/18 140/220/18 142/223/18
f 139/222/19 141/221/19 143/224/19
f 141/221/20 142/223/20 143/224/20
f 144/225/21 139/222/21 143/224/21
f 144/225/22 143/224/22 146/226/22
f 143/224/23 142/223/23 145/227/23
f 143/224/24 145/227/24 146/226/24
f 144/225/25 146/226/25 147/228/25
f 146/226/26 145/227/26 148/229/26
f 147/228/27 146/226/27 148/230/27
f 149/231/28 147/228/28 148/230/28
f 149/231/29 148/230/29 151/232/29
f 148/229/30 145/227/30 150/233/30
f 148/229/31 150/233/31 151/234/31
f 152/235/32 149/236/32 151/237/32
f 153/238/33 152/239/33 151/240/33
f 150/241/34 153/242/34 151/243/34
f 154/244/35 155/245/35 153/242/35
f 150/241/36 154/244/36 153/242/36
f 155/246/37 156/247/37 153/238/37
f 153/238/38 156/247/38 152/239/38
f 158/248/39 157/249/39 156/247/39
f 156/247/40 157/249/40 152/239/40
f 159/250/41 156/247/41 155/246/41
f 159/250/42 158/248/42 156/247/42
f 161/251/43 160/252/43 159/253/43
f 160/254/44 158/248/44 159/250/44
f 162/255/45 159/253/45 155/245/45
f 162/255/46 161/251/46 159/253/46
f 164/256/47 161/251/47 162/255/47
f 163/257/48 162/255/48 154/244/48
f 164/256/49 162/255/49 163/257/49
f 162/255/50 155/245/50 154/244/50
f 137/207/51 161/251/51 164/256/51
f 137/218/52 164/256/52 140/220/52
f 140/220/53 164/256/53 163/257/53
f 142/223/54 163/257/54 165/258/54
f 163/257/55 154/244/55 165/258/55
f 142/223/56 140/220/56 163/257/56
f 165/258/57 154/244/57 150/241/57
f 142/223/58 165/258/58 145/227/58
f 145/227/59 165/258/59 150/233/59
f 134/206/89 160/252/89 161/251/89
f 137/207/61 134/206/61 161/251/61
f 134/210/62 166/259/62 160/254/62
f 160/254/63 166/259/63 158/248/63
f 158/248/64 166/259/64 167/260/64
f 166/259/65 168/261/65 167/260/65
f 134/210/66 135/209/66 166/259/66
f 135/209/67 168/261/67 166/259/67
f 168/261/68 135/211/68 169/262/68
f 168/261/69 169/262/69 170/263/69
f 168/261/70 170/263/70 167/260/70
f 170/263/71 172/264/71 171/265/71
f 170/263/72 171/265/72 173/266/72
f 167/260/73 170/263/73 173/266/73
f 170/263/74 169/262/74 172/264/74
f 173/266/75 171/265/75 149/236/75
f 152/235/76 173/266/76 149/236/76
f 167/260/77 173/266/77 157/249/77
f 157/249/78 173/266/78 152/235/78
f 172/264/79 147/228/79 171/265/79
f 169/262/80 174/267/80 172/264/80
f 172/264/81 144/225/81 147/228/81
f 174/267/82 144/225/82 172/264/82
f 169/262/83 136/213/83 174/267/83
f 136/216/84 139/222/84 174/267/84
f 174/267/85 139/222/85 144/225/85
f 171/265/86 147/228/86 149/231/86
f 169/262/87 135/211/87 136/213/87
f 158/248/88 167/260/88 157/249/88
