# Blender 4.1.1
# www.blender.org
mtllib rock.mtl
o rock.001
v -0.217967 0.310406 -0.014854
v -0.318837 -0.519425 -0.251933
v -0.285905 -0.386114 0.281510
v 0.301949 -0.346932 0.299945
v 0.320870 -0.403049 -0.387053
v 0.338456 0.362222 -0.161972
v 0.317396 0.334098 0.316338
v -0.449746 -0.062185 -0.023433
v -0.323838 -0.059866 0.358243
v 0.003293 -0.414802 0.328651
v -0.085248 0.093729 -0.398065
v -0.004493 0.458813 -0.095943
v 0.050099 0.406036 0.364375
v 0.370818 0.410066 0.061253
v 0.348373 -0.435077 -0.022252
v -0.414046 -0.541728 -0.003919
v 0.407039 -0.003463 0.406759
v 0.441263 -0.001759 -0.396779
v -0.037087 -0.550245 -0.382031
v -0.465576 -0.216947 0.139674
v -0.262451 -0.214318 -0.325874
v 0.161203 0.183153 -0.358799
v 0.165108 0.543634 0.159491
v 0.017347 -0.006307 0.452429
v -0.011593 -0.587248 -0.021459
v 0.466125 -0.005622 0.002889
vn -0.8209 0.5045 0.2677
vn -0.9277 -0.0839 -0.3637
vn -0.7627 -0.3589 0.5381
vn -0.6588 0.4241 -0.6213
vn -0.0037 -0.0252 -0.9997
vn -0.4276 -0.1375 -0.8935
vn -0.6091 0.5813 -0.5396
vn 0.0643 0.7086 -0.7026
vn -0.1255 0.0136 -0.9920
vn -0.5464 0.8331 0.0862
vn 0.3047 0.7027 0.6429
vn 0.4411 0.8623 -0.2488
vn -0.7274 0.5790 0.3682
vn -0.2152 -0.2764 0.9366
vn 0.1124 -0.3263 0.9386
vn 0.2222 0.1867 0.9570
vn -0.1596 -0.8829 0.4416
vn -0.1171 -0.9841 -0.1335
vn 0.3868 -0.9156 -0.1096
vn 0.2393 -0.8750 0.4208
vn 0.9342 -0.3289 0.1384
vn 0.9634 -0.2605 -0.0625
vn 0.9507 0.2447 -0.1903
vn 0.9476 0.2884 0.1371
vn -0.8747 0.3911 0.2862
vn -0.9820 -0.0801 -0.1713
vn -0.7292 -0.2359 0.6424
vn -0.8053 0.3513 -0.4776
vn -0.3064 -0.0466 -0.9508
vn -0.8440 0.0261 -0.5358
vn -0.1153 0.6483 -0.7526
vn 0.2750 0.5748 -0.7707
vn 0.1276 0.0824 -0.9884
vn -0.5759 0.7907 0.2077
vn 0.6210 0.7061 0.3403
vn 0.1727 0.8948 -0.4118
vn -0.2917 0.2219 0.9304
vn -0.1796 -0.2450 0.9527
vn 0.1569 -0.2913 0.9437
vn 0.1096 0.2842 0.9525
vn -0.0754 -0.8609 0.5032
vn -0.1495 -0.9846 -0.0905
vn 0.3761 -0.9187 -0.1209
vn 0.3727 -0.8800 0.2944
vn 0.9399 -0.2699 0.2093
vn 0.9526 -0.2882 -0.0971
vn 0.9508 0.3048 -0.0562
vn 0.9501 0.1823 0.2533
vt 0.124829 0.369804
vt -0.000000 0.238333
vt 0.238500 0.210858
vt -0.000000 0.468971
vt 0.104356 0.496845
vt 0.529408 0.456573
vt 0.637707 0.444558
vt 0.524943 0.540496
vt 0.699053 0.590706
vt 0.475945 0.659111
vt 0.508986 0.540496
vt 0.361090 0.802550
vt 0.633594 0.699383
vt 0.470208 0.936802
vt 0.334836 0.670004
vt 0.326041 0.132863
vt 0.334836 0.318074
vt 0.882555 0.731899
vt 0.802055 0.831048
vt 0.735879 0.662369
vt 0.702314 0.790706
vt 0.659085 0.936802
vt 0.271858 -0.000000
vt 0.522754 0.034277
vt 0.632622 -0.000000
vt 0.637707 0.085706
vt 0.829865 0.555646
vt 0.918438 0.634777
vt 0.151978 0.016066
vt 0.636589 0.354668
vt 0.420795 0.386076
vt 0.533936 0.241759
vt 0.334836 0.277199
vt 0.397329 0.129572
vt 0.318355 0.765406
vt 0.145964 0.663634
vt 0.318556 0.635056
vt 0.074780 0.808610
vt 0.181716 0.841172
vt 0.000000 0.523932
vt 0.148372 0.496845
vt 0.300175 0.500127
vt 0.948069 0.343687
vt 0.817966 0.175507
vt 1.000000 0.183778
vt 0.801957 0.375436
vt 0.637707 0.171695
vt 0.747122 0.021581
vt 0.848355 -0.000000
vt 0.962498 0.040842
vt 0.025324 0.371194
vt 0.213663 0.425727
vt 0.702314 0.844843
vt 0.934576 0.900311
vt 0.934576 0.540496
vt 0.000000 0.689446
vt 0.637707 0.359735
s 0
usemtl マテリアル
f 8/1/1 9/2/1 1/3/1
f 16/4/2 8/1/2 2/5/2
f 3/6/3 20/7/3 16/8/3
f 1/9/4 21/10/4 8/11/4
f 19/12/5 11/13/5 5/14/5
f 2/15/6 21/10/6 19/12/6
f 12/16/7 11/17/7 1/3/7
f 6/18/8 22/19/8 12/20/8
f 5/14/9 22/21/9 18/22/9
f 1/3/10 23/23/10 12/16/10
f 7/24/11 23/25/11 13/26/11
f 6/18/12 23/27/12 14/28/12
f 9/2/13 13/29/13 1/3/13
f 9/30/14 10/31/14 24/32/14
f 24/32/15 4/33/15 17/34/15
f 24/32/16 7/24/16 13/26/16
f 3/35/17 25/36/17 10/37/17
f 2/38/18 25/36/18 16/39/18
f 25/36/19 5/40/19 15/41/19
f 25/36/20 4/42/20 10/37/20
f 4/43/21 26/44/21 17/45/21
f 15/46/22 18/47/22 26/44/22
f 26/44/23 6/48/23 14/49/23
f 26/44/24 7/50/24 17/45/24
f 8/1/25 20/51/25 9/2/25
f 16/4/26 20/51/26 8/1/26
f 3/6/27 9/30/27 20/7/27
f 1/3/28 11/17/28 21/52/28
f 19/12/29 21/10/29 11/13/29
f 2/15/30 8/11/30 21/10/30
f 12/20/31 22/19/31 11/53/31
f 6/18/32 18/54/32 22/19/32
f 5/14/33 11/13/33 22/21/33
f 1/3/34 13/29/34 23/23/34
f 7/55/35 14/28/35 23/27/35
f 6/18/36 12/20/36 23/27/36
f 9/30/37 24/32/37 13/26/37
f 9/30/38 3/6/38 10/31/38
f 24/32/39 10/31/39 4/33/39
f 24/32/40 17/34/40 7/24/40
f 3/35/41 16/39/41 25/36/41
f 2/38/42 19/56/42 25/36/42
f 25/36/43 19/56/43 5/40/43
f 25/36/44 15/41/44 4/42/44
f 4/43/45 15/46/45 26/44/45
f 15/46/46 5/57/46 18/47/46
f 26/44/47 18/47/47 6/48/47
f 26/44/48 14/49/48 7/50/48
